<svg width="782" height="138" viewBox="0 0 782 138" xmlns="http://www.w3.org/2000/svg" xmlns:xlink="http://www.w3.org/1999/xlink">
  <defs>
    <path id="swimPathYellowShark" d="M -100,54.0 C -40.599999999999994,34.0 18.80000000000001,34.0 80,54.0 C 139.4,74.0 198.8,74.0 260,54.0 C 319.4,34.0 378.8,34.0 440,54.0 C 499.4,74.0 558.8,74.0 620,54.0 C 679.4,34.0 738.8,34.0 800,54.0 C 859.4,74.0 918.8,74.0 980,54.0" fill="none"/>
    <path id="swimPathPinkShark" d="M -100,87.0 C -30.700000000000003,111.0 38.599999999999994,111.0 110,87.0 C 179.3,63.0 248.6,63.0 320,87.0 C 389.3,111.0 458.6,111.0 530,87.0 C 599.3,63.0 668.6,63.0 740,87.0 C 809.3,111.0 878.6,111.0 950,87.0" fill="none"/>
    <path id="swimPathCyanShark" d="M -100,67.0 C -47.199999999999996,51.0 5.6000000000000085,51.0 60,67.0 C 112.80000000000001,83.0 165.60000000000002,83.0 220,67.0 C 272.8,51.0 325.6,51.0 380,67.0 C 432.8,83.0 485.6,83.0 540,67.0 C 592.8,51.0 645.6,51.0 700,67.0 C 752.8,83.0 805.6,83.0 860,67.0 C 912.8,51.0 965.6,51.0 1020,67.0" fill="none"/>
    <path id="swimPathAmberShark" d="M -100,77.0 C -24.099999999999994,103.0 51.80000000000001,103.0 130,77.0 C 205.9,51.0 281.8,51.0 360,77.0 C 435.9,103.0 511.8,103.0 590,77.0 C 665.9,51.0 741.8,51.0 820,77.0 C 895.9,103.0 971.8,103.0 1050,77.0" fill="none"/>
    <g id="sharkShapeYellow">
      <path d="M -70,0
               C -60,-14 -30,-22 10,-20
               C 45,-19 68,-10 85,0
               C 68,10 45,19 10,20
               C -30,22 -60,14 -70,0 Z"
            fill="#e3b341"/>
      <path d="M -5,-19 C 2,-40 14,-42 20,-22 C 12,-26 2,-24 -5,-19 Z" fill="#e3b341"/>
      <path d="M 78,-2 C 100,-22 112,-30 108,-6 C 104,-2 96,0 88,0
               C 96,2 104,6 106,14 C 108,30 96,18 78,4 Z" fill="#e3b341"/>
      <path d="M -10,10 C -14,26 -6,30 6,16 C 0,14 -6,12 -10,10 Z" fill="#a8801f" opacity="0.9"/>
      <path d="M -55,6 C -30,16 20,17 60,4 C 55,10 20,20 -20,19 C -38,18 -48,13 -55,6 Z" fill="#a8801f" opacity="0.5"/>
      <path d="M -38,-6 L -35,7 M -32,-8 L -29,8 M -26,-9 L -23,9" stroke="#a8801f" stroke-width="1.3" opacity="0.6"/>
      <circle cx="-58" cy="-3" r="2" fill="#0d1117"/>
    </g>
    <g id="sharkShapePink">
      <path d="M -70,0
               C -60,-14 -30,-22 10,-20
               C 45,-19 68,-10 85,0
               C 68,10 45,19 10,20
               C -30,22 -60,14 -70,0 Z"
            fill="#f778ba"/>
      <path d="M -5,-19 C 2,-40 14,-42 20,-22 C 12,-26 2,-24 -5,-19 Z" fill="#f778ba"/>
      <path d="M 78,-2 C 100,-22 112,-30 108,-6 C 104,-2 96,0 88,0
               C 96,2 104,6 106,14 C 108,30 96,18 78,4 Z" fill="#f778ba"/>
      <path d="M -10,10 C -14,26 -6,30 6,16 C 0,14 -6,12 -10,10 Z" fill="#c14e8f" opacity="0.9"/>
      <path d="M -55,6 C -30,16 20,17 60,4 C 55,10 20,20 -20,19 C -38,18 -48,13 -55,6 Z" fill="#c14e8f" opacity="0.5"/>
      <path d="M -38,-6 L -35,7 M -32,-8 L -29,8 M -26,-9 L -23,9" stroke="#c14e8f" stroke-width="1.3" opacity="0.6"/>
      <circle cx="-58" cy="-3" r="2" fill="#0d1117"/>
    </g>
    <g id="sharkShapeCyan">
      <path d="M -70,0
               C -60,-14 -30,-22 10,-20
               C 45,-19 68,-10 85,0
               C 68,10 45,19 10,20
               C -30,22 -60,14 -70,0 Z"
            fill="#79c0ff"/>
      <path d="M -5,-19 C 2,-40 14,-42 20,-22 C 12,-26 2,-24 -5,-19 Z" fill="#79c0ff"/>
      <path d="M 78,-2 C 100,-22 112,-30 108,-6 C 104,-2 96,0 88,0
               C 96,2 104,6 106,14 C 108,30 96,18 78,4 Z" fill="#79c0ff"/>
      <path d="M -10,10 C -14,26 -6,30 6,16 C 0,14 -6,12 -10,10 Z" fill="#3d7fc4" opacity="0.9"/>
      <path d="M -55,6 C -30,16 20,17 60,4 C 55,10 20,20 -20,19 C -38,18 -48,13 -55,6 Z" fill="#3d7fc4" opacity="0.5"/>
      <path d="M -38,-6 L -35,7 M -32,-8 L -29,8 M -26,-9 L -23,9" stroke="#3d7fc4" stroke-width="1.3" opacity="0.6"/>
      <circle cx="-58" cy="-3" r="2" fill="#0d1117"/>
    </g>
    <g id="sharkShapeAmber">
      <path d="M -70,0
               C -60,-14 -30,-22 10,-20
               C 45,-19 68,-10 85,0
               C 68,10 45,19 10,20
               C -30,22 -60,14 -70,0 Z"
            fill="#d29922"/>
      <path d="M -5,-19 C 2,-40 14,-42 20,-22 C 12,-26 2,-24 -5,-19 Z" fill="#d29922"/>
      <path d="M 78,-2 C 100,-22 112,-30 108,-6 C 104,-2 96,0 88,0
               C 96,2 104,6 106,14 C 108,30 96,18 78,4 Z" fill="#d29922"/>
      <path d="M -10,10 C -14,26 -6,30 6,16 C 0,14 -6,12 -10,10 Z" fill="#95700f" opacity="0.9"/>
      <path d="M -55,6 C -30,16 20,17 60,4 C 55,10 20,20 -20,19 C -38,18 -48,13 -55,6 Z" fill="#95700f" opacity="0.5"/>
      <path d="M -38,-6 L -35,7 M -32,-8 L -29,8 M -26,-9 L -23,9" stroke="#95700f" stroke-width="1.3" opacity="0.6"/>
      <circle cx="-58" cy="-3" r="2" fill="#0d1117"/>
    </g>
  </defs>

  <!-- background: contribution-graph-style grid -->
  <g>
    <rect x="20" y="20" width="11" height="11" rx="2" fill="#161b22"/>
    <rect x="20" y="34" width="11" height="11" rx="2" fill="#161b22"/>
    <rect x="20" y="48" width="11" height="11" rx="2" fill="#006d32"/>
    <rect x="20" y="62" width="11" height="11" rx="2" fill="#161b22"/>
    <rect x="20" y="76" width="11" height="11" rx="2" fill="#0e4429"/>
    <rect x="20" y="90" width="11" height="11" rx="2" fill="#0e4429"/>
    <rect x="20" y="104" width="11" height="11" rx="2" fill="#161b22"/>
    <rect x="34" y="20" width="11" height="11" rx="2" fill="#0e4429"/>
    <rect x="34" y="34" width="11" height="11" rx="2" fill="#161b22"/>
    <rect x="34" y="48" width="11" height="11" rx="2" fill="#0e4429"/>
    <rect x="34" y="62" width="11" height="11" rx="2" fill="#161b22"/>
    <rect x="34" y="76" width="11" height="11" rx="2" fill="#161b22"/>
    <rect x="34" y="90" width="11" height="11" rx="2" fill="#0e4429"/>
    <rect x="34" y="104" width="11" height="11" rx="2" fill="#26a641"/>
    <rect x="48" y="20" width="11" height="11" rx="2" fill="#161b22"/>
    <rect x="48" y="34" width="11" height="11" rx="2" fill="#161b22"/>
    <rect x="48" y="48" width="11" height="11" rx="2" fill="#006d32"/>
    <rect x="48" y="62" width="11" height="11" rx="2" fill="#39d353"/>
    <rect x="48" y="76" width="11" height="11" rx="2" fill="#0e4429"/>
    <rect x="48" y="90" width="11" height="11" rx="2" fill="#0e4429"/>
    <rect x="48" y="104" width="11" height="11" rx="2" fill="#39d353"/>
    <rect x="62" y="20" width="11" height="11" rx="2" fill="#161b22"/>
    <rect x="62" y="34" width="11" height="11" rx="2" fill="#26a641"/>
    <rect x="62" y="48" width="11" height="11" rx="2" fill="#161b22"/>
    <rect x="62" y="62" width="11" height="11" rx="2" fill="#161b22"/>
    <rect x="62" y="76" width="11" height="11" rx="2" fill="#161b22"/>
    <rect x="62" y="90" width="11" height="11" rx="2" fill="#161b22"/>
    <rect x="62" y="104" width="11" height="11" rx="2" fill="#26a641"/>
    <rect x="76" y="20" width="11" height="11" rx="2" fill="#161b22"/>
    <rect x="76" y="34" width="11" height="11" rx="2" fill="#0e4429"/>
    <rect x="76" y="48" width="11" height="11" rx="2" fill="#006d32"/>
    <rect x="76" y="62" width="11" height="11" rx="2" fill="#0e4429"/>
    <rect x="76" y="76" width="11" height="11" rx="2" fill="#0e4429"/>
    <rect x="76" y="90" width="11" height="11" rx="2" fill="#161b22"/>
    <rect x="76" y="104" width="11" height="11" rx="2" fill="#161b22"/>
    <rect x="90" y="20" width="11" height="11" rx="2" fill="#161b22"/>
    <rect x="90" y="34" width="11" height="11" rx="2" fill="#006d32"/>
    <rect x="90" y="48" width="11" height="11" rx="2" fill="#0e4429"/>
    <rect x="90" y="62" width="11" height="11" rx="2" fill="#161b22"/>
    <rect x="90" y="76" width="11" height="11" rx="2" fill="#0e4429"/>
    <rect x="90" y="90" width="11" height="11" rx="2" fill="#0e4429"/>
    <rect x="90" y="104" width="11" height="11" rx="2" fill="#161b22"/>
    <rect x="104" y="20" width="11" height="11" rx="2" fill="#006d32"/>
    <rect x="104" y="34" width="11" height="11" rx="2" fill="#006d32"/>
    <rect x="104" y="48" width="11" height="11" rx="2" fill="#161b22"/>
    <rect x="104" y="62" width="11" height="11" rx="2" fill="#0e4429"/>
    <rect x="104" y="76" width="11" height="11" rx="2" fill="#0e4429"/>
    <rect x="104" y="90" width="11" height="11" rx="2" fill="#26a641"/>
    <rect x="104" y="104" width="11" height="11" rx="2" fill="#006d32"/>
    <rect x="118" y="20" width="11" height="11" rx="2" fill="#161b22"/>
    <rect x="118" y="34" width="11" height="11" rx="2" fill="#39d353"/>
    <rect x="118" y="48" width="11" height="11" rx="2" fill="#161b22"/>
    <rect x="118" y="62" width="11" height="11" rx="2" fill="#0e4429"/>
    <rect x="118" y="76" width="11" height="11" rx="2" fill="#006d32"/>
    <rect x="118" y="90" width="11" height="11" rx="2" fill="#161b22"/>
    <rect x="118" y="104" width="11" height="11" rx="2" fill="#0e4429"/>
    <rect x="132" y="20" width="11" height="11" rx="2" fill="#161b22"/>
    <rect x="132" y="34" width="11" height="11" rx="2" fill="#006d32"/>
    <rect x="132" y="48" width="11" height="11" rx="2" fill="#006d32"/>
    <rect x="132" y="62" width="11" height="11" rx="2" fill="#0e4429"/>
    <rect x="132" y="76" width="11" height="11" rx="2" fill="#26a641"/>
    <rect x="132" y="90" width="11" height="11" rx="2" fill="#161b22"/>
    <rect x="132" y="104" width="11" height="11" rx="2" fill="#006d32"/>
    <rect x="146" y="20" width="11" height="11" rx="2" fill="#0e4429"/>
    <rect x="146" y="34" width="11" height="11" rx="2" fill="#0e4429"/>
    <rect x="146" y="48" width="11" height="11" rx="2" fill="#0e4429"/>
    <rect x="146" y="62" width="11" height="11" rx="2" fill="#26a641"/>
    <rect x="146" y="76" width="11" height="11" rx="2" fill="#39d353"/>
    <rect x="146" y="90" width="11" height="11" rx="2" fill="#0e4429"/>
    <rect x="146" y="104" width="11" height="11" rx="2" fill="#006d32"/>
    <rect x="160" y="20" width="11" height="11" rx="2" fill="#161b22"/>
    <rect x="160" y="34" width="11" height="11" rx="2" fill="#006d32"/>
    <rect x="160" y="48" width="11" height="11" rx="2" fill="#006d32"/>
    <rect x="160" y="62" width="11" height="11" rx="2" fill="#39d353"/>
    <rect x="160" y="76" width="11" height="11" rx="2" fill="#26a641"/>
    <rect x="160" y="90" width="11" height="11" rx="2" fill="#161b22"/>
    <rect x="160" y="104" width="11" height="11" rx="2" fill="#0e4429"/>
    <rect x="174" y="20" width="11" height="11" rx="2" fill="#006d32"/>
    <rect x="174" y="34" width="11" height="11" rx="2" fill="#161b22"/>
    <rect x="174" y="48" width="11" height="11" rx="2" fill="#0e4429"/>
    <rect x="174" y="62" width="11" height="11" rx="2" fill="#161b22"/>
    <rect x="174" y="76" width="11" height="11" rx="2" fill="#161b22"/>
    <rect x="174" y="90" width="11" height="11" rx="2" fill="#161b22"/>
    <rect x="174" y="104" width="11" height="11" rx="2" fill="#006d32"/>
    <rect x="188" y="20" width="11" height="11" rx="2" fill="#161b22"/>
    <rect x="188" y="34" width="11" height="11" rx="2" fill="#161b22"/>
    <rect x="188" y="48" width="11" height="11" rx="2" fill="#0e4429"/>
    <rect x="188" y="62" width="11" height="11" rx="2" fill="#26a641"/>
    <rect x="188" y="76" width="11" height="11" rx="2" fill="#161b22"/>
    <rect x="188" y="90" width="11" height="11" rx="2" fill="#0e4429"/>
    <rect x="188" y="104" width="11" height="11" rx="2" fill="#0e4429"/>
    <rect x="202" y="20" width="11" height="11" rx="2" fill="#26a641"/>
    <rect x="202" y="34" width="11" height="11" rx="2" fill="#26a641"/>
    <rect x="202" y="48" width="11" height="11" rx="2" fill="#26a641"/>
    <rect x="202" y="62" width="11" height="11" rx="2" fill="#161b22"/>
    <rect x="202" y="76" width="11" height="11" rx="2" fill="#0e4429"/>
    <rect x="202" y="90" width="11" height="11" rx="2" fill="#0e4429"/>
    <rect x="202" y="104" width="11" height="11" rx="2" fill="#26a641"/>
    <rect x="216" y="20" width="11" height="11" rx="2" fill="#39d353"/>
    <rect x="216" y="34" width="11" height="11" rx="2" fill="#161b22"/>
    <rect x="216" y="48" width="11" height="11" rx="2" fill="#161b22"/>
    <rect x="216" y="62" width="11" height="11" rx="2" fill="#161b22"/>
    <rect x="216" y="76" width="11" height="11" rx="2" fill="#161b22"/>
    <rect x="216" y="90" width="11" height="11" rx="2" fill="#0e4429"/>
    <rect x="216" y="104" width="11" height="11" rx="2" fill="#0e4429"/>
    <rect x="230" y="20" width="11" height="11" rx="2" fill="#161b22"/>
    <rect x="230" y="34" width="11" height="11" rx="2" fill="#161b22"/>
    <rect x="230" y="48" width="11" height="11" rx="2" fill="#0e4429"/>
    <rect x="230" y="62" width="11" height="11" rx="2" fill="#0e4429"/>
    <rect x="230" y="76" width="11" height="11" rx="2" fill="#0e4429"/>
    <rect x="230" y="90" width="11" height="11" rx="2" fill="#39d353"/>
    <rect x="230" y="104" width="11" height="11" rx="2" fill="#006d32"/>
    <rect x="244" y="20" width="11" height="11" rx="2" fill="#0e4429"/>
    <rect x="244" y="34" width="11" height="11" rx="2" fill="#006d32"/>
    <rect x="244" y="48" width="11" height="11" rx="2" fill="#006d32"/>
    <rect x="244" y="62" width="11" height="11" rx="2" fill="#161b22"/>
    <rect x="244" y="76" width="11" height="11" rx="2" fill="#26a641"/>
    <rect x="244" y="90" width="11" height="11" rx="2" fill="#006d32"/>
    <rect x="244" y="104" width="11" height="11" rx="2" fill="#26a641"/>
    <rect x="258" y="20" width="11" height="11" rx="2" fill="#006d32"/>
    <rect x="258" y="34" width="11" height="11" rx="2" fill="#0e4429"/>
    <rect x="258" y="48" width="11" height="11" rx="2" fill="#0e4429"/>
    <rect x="258" y="62" width="11" height="11" rx="2" fill="#161b22"/>
    <rect x="258" y="76" width="11" height="11" rx="2" fill="#006d32"/>
    <rect x="258" y="90" width="11" height="11" rx="2" fill="#161b22"/>
    <rect x="258" y="104" width="11" height="11" rx="2" fill="#161b22"/>
    <rect x="272" y="20" width="11" height="11" rx="2" fill="#161b22"/>
    <rect x="272" y="34" width="11" height="11" rx="2" fill="#161b22"/>
    <rect x="272" y="48" width="11" height="11" rx="2" fill="#161b22"/>
    <rect x="272" y="62" width="11" height="11" rx="2" fill="#161b22"/>
    <rect x="272" y="76" width="11" height="11" rx="2" fill="#161b22"/>
    <rect x="272" y="90" width="11" height="11" rx="2" fill="#161b22"/>
    <rect x="272" y="104" width="11" height="11" rx="2" fill="#161b22"/>
    <rect x="286" y="20" width="11" height="11" rx="2" fill="#0e4429"/>
    <rect x="286" y="34" width="11" height="11" rx="2" fill="#161b22"/>
    <rect x="286" y="48" width="11" height="11" rx="2" fill="#26a641"/>
    <rect x="286" y="62" width="11" height="11" rx="2" fill="#006d32"/>
    <rect x="286" y="76" width="11" height="11" rx="2" fill="#161b22"/>
    <rect x="286" y="90" width="11" height="11" rx="2" fill="#161b22"/>
    <rect x="286" y="104" width="11" height="11" rx="2" fill="#161b22"/>
    <rect x="300" y="20" width="11" height="11" rx="2" fill="#0e4429"/>
    <rect x="300" y="34" width="11" height="11" rx="2" fill="#161b22"/>
    <rect x="300" y="48" width="11" height="11" rx="2" fill="#26a641"/>
    <rect x="300" y="62" width="11" height="11" rx="2" fill="#39d353"/>
    <rect x="300" y="76" width="11" height="11" rx="2" fill="#0e4429"/>
    <rect x="300" y="90" width="11" height="11" rx="2" fill="#0e4429"/>
    <rect x="300" y="104" width="11" height="11" rx="2" fill="#161b22"/>
    <rect x="314" y="20" width="11" height="11" rx="2" fill="#161b22"/>
    <rect x="314" y="34" width="11" height="11" rx="2" fill="#161b22"/>
    <rect x="314" y="48" width="11" height="11" rx="2" fill="#161b22"/>
    <rect x="314" y="62" width="11" height="11" rx="2" fill="#26a641"/>
    <rect x="314" y="76" width="11" height="11" rx="2" fill="#161b22"/>
    <rect x="314" y="90" width="11" height="11" rx="2" fill="#161b22"/>
    <rect x="314" y="104" width="11" height="11" rx="2" fill="#39d353"/>
    <rect x="328" y="20" width="11" height="11" rx="2" fill="#0e4429"/>
    <rect x="328" y="34" width="11" height="11" rx="2" fill="#161b22"/>
    <rect x="328" y="48" width="11" height="11" rx="2" fill="#0e4429"/>
    <rect x="328" y="62" width="11" height="11" rx="2" fill="#161b22"/>
    <rect x="328" y="76" width="11" height="11" rx="2" fill="#0e4429"/>
    <rect x="328" y="90" width="11" height="11" rx="2" fill="#39d353"/>
    <rect x="328" y="104" width="11" height="11" rx="2" fill="#26a641"/>
    <rect x="342" y="20" width="11" height="11" rx="2" fill="#006d32"/>
    <rect x="342" y="34" width="11" height="11" rx="2" fill="#161b22"/>
    <rect x="342" y="48" width="11" height="11" rx="2" fill="#0e4429"/>
    <rect x="342" y="62" width="11" height="11" rx="2" fill="#161b22"/>
    <rect x="342" y="76" width="11" height="11" rx="2" fill="#006d32"/>
    <rect x="342" y="90" width="11" height="11" rx="2" fill="#0e4429"/>
    <rect x="342" y="104" width="11" height="11" rx="2" fill="#006d32"/>
    <rect x="356" y="20" width="11" height="11" rx="2" fill="#161b22"/>
    <rect x="356" y="34" width="11" height="11" rx="2" fill="#161b22"/>
    <rect x="356" y="48" width="11" height="11" rx="2" fill="#26a641"/>
    <rect x="356" y="62" width="11" height="11" rx="2" fill="#39d353"/>
    <rect x="356" y="76" width="11" height="11" rx="2" fill="#26a641"/>
    <rect x="356" y="90" width="11" height="11" rx="2" fill="#26a641"/>
    <rect x="356" y="104" width="11" height="11" rx="2" fill="#26a641"/>
    <rect x="370" y="20" width="11" height="11" rx="2" fill="#006d32"/>
    <rect x="370" y="34" width="11" height="11" rx="2" fill="#161b22"/>
    <rect x="370" y="48" width="11" height="11" rx="2" fill="#0e4429"/>
    <rect x="370" y="62" width="11" height="11" rx="2" fill="#0e4429"/>
    <rect x="370" y="76" width="11" height="11" rx="2" fill="#161b22"/>
    <rect x="370" y="90" width="11" height="11" rx="2" fill="#161b22"/>
    <rect x="370" y="104" width="11" height="11" rx="2" fill="#161b22"/>
    <rect x="384" y="20" width="11" height="11" rx="2" fill="#161b22"/>
    <rect x="384" y="34" width="11" height="11" rx="2" fill="#006d32"/>
    <rect x="384" y="48" width="11" height="11" rx="2" fill="#39d353"/>
    <rect x="384" y="62" width="11" height="11" rx="2" fill="#0e4429"/>
    <rect x="384" y="76" width="11" height="11" rx="2" fill="#39d353"/>
    <rect x="384" y="90" width="11" height="11" rx="2" fill="#39d353"/>
    <rect x="384" y="104" width="11" height="11" rx="2" fill="#39d353"/>
    <rect x="398" y="20" width="11" height="11" rx="2" fill="#0e4429"/>
    <rect x="398" y="34" width="11" height="11" rx="2" fill="#161b22"/>
    <rect x="398" y="48" width="11" height="11" rx="2" fill="#161b22"/>
    <rect x="398" y="62" width="11" height="11" rx="2" fill="#161b22"/>
    <rect x="398" y="76" width="11" height="11" rx="2" fill="#161b22"/>
    <rect x="398" y="90" width="11" height="11" rx="2" fill="#006d32"/>
    <rect x="398" y="104" width="11" height="11" rx="2" fill="#26a641"/>
    <rect x="412" y="20" width="11" height="11" rx="2" fill="#26a641"/>
    <rect x="412" y="34" width="11" height="11" rx="2" fill="#0e4429"/>
    <rect x="412" y="48" width="11" height="11" rx="2" fill="#006d32"/>
    <rect x="412" y="62" width="11" height="11" rx="2" fill="#006d32"/>
    <rect x="412" y="76" width="11" height="11" rx="2" fill="#161b22"/>
    <rect x="412" y="90" width="11" height="11" rx="2" fill="#006d32"/>
    <rect x="412" y="104" width="11" height="11" rx="2" fill="#26a641"/>
    <rect x="426" y="20" width="11" height="11" rx="2" fill="#006d32"/>
    <rect x="426" y="34" width="11" height="11" rx="2" fill="#006d32"/>
    <rect x="426" y="48" width="11" height="11" rx="2" fill="#0e4429"/>
    <rect x="426" y="62" width="11" height="11" rx="2" fill="#161b22"/>
    <rect x="426" y="76" width="11" height="11" rx="2" fill="#006d32"/>
    <rect x="426" y="90" width="11" height="11" rx="2" fill="#161b22"/>
    <rect x="426" y="104" width="11" height="11" rx="2" fill="#26a641"/>
    <rect x="440" y="20" width="11" height="11" rx="2" fill="#39d353"/>
    <rect x="440" y="34" width="11" height="11" rx="2" fill="#0e4429"/>
    <rect x="440" y="48" width="11" height="11" rx="2" fill="#0e4429"/>
    <rect x="440" y="62" width="11" height="11" rx="2" fill="#39d353"/>
    <rect x="440" y="76" width="11" height="11" rx="2" fill="#006d32"/>
    <rect x="440" y="90" width="11" height="11" rx="2" fill="#161b22"/>
    <rect x="440" y="104" width="11" height="11" rx="2" fill="#161b22"/>
    <rect x="454" y="20" width="11" height="11" rx="2" fill="#161b22"/>
    <rect x="454" y="34" width="11" height="11" rx="2" fill="#26a641"/>
    <rect x="454" y="48" width="11" height="11" rx="2" fill="#26a641"/>
    <rect x="454" y="62" width="11" height="11" rx="2" fill="#161b22"/>
    <rect x="454" y="76" width="11" height="11" rx="2" fill="#26a641"/>
    <rect x="454" y="90" width="11" height="11" rx="2" fill="#39d353"/>
    <rect x="454" y="104" width="11" height="11" rx="2" fill="#006d32"/>
    <rect x="468" y="20" width="11" height="11" rx="2" fill="#0e4429"/>
    <rect x="468" y="34" width="11" height="11" rx="2" fill="#0e4429"/>
    <rect x="468" y="48" width="11" height="11" rx="2" fill="#161b22"/>
    <rect x="468" y="62" width="11" height="11" rx="2" fill="#161b22"/>
    <rect x="468" y="76" width="11" height="11" rx="2" fill="#39d353"/>
    <rect x="468" y="90" width="11" height="11" rx="2" fill="#006d32"/>
    <rect x="468" y="104" width="11" height="11" rx="2" fill="#0e4429"/>
    <rect x="482" y="20" width="11" height="11" rx="2" fill="#39d353"/>
    <rect x="482" y="34" width="11" height="11" rx="2" fill="#0e4429"/>
    <rect x="482" y="48" width="11" height="11" rx="2" fill="#26a641"/>
    <rect x="482" y="62" width="11" height="11" rx="2" fill="#26a641"/>
    <rect x="482" y="76" width="11" height="11" rx="2" fill="#161b22"/>
    <rect x="482" y="90" width="11" height="11" rx="2" fill="#161b22"/>
    <rect x="482" y="104" width="11" height="11" rx="2" fill="#161b22"/>
    <rect x="496" y="20" width="11" height="11" rx="2" fill="#161b22"/>
    <rect x="496" y="34" width="11" height="11" rx="2" fill="#0e4429"/>
    <rect x="496" y="48" width="11" height="11" rx="2" fill="#161b22"/>
    <rect x="496" y="62" width="11" height="11" rx="2" fill="#0e4429"/>
    <rect x="496" y="76" width="11" height="11" rx="2" fill="#161b22"/>
    <rect x="496" y="90" width="11" height="11" rx="2" fill="#26a641"/>
    <rect x="496" y="104" width="11" height="11" rx="2" fill="#0e4429"/>
    <rect x="510" y="20" width="11" height="11" rx="2" fill="#0e4429"/>
    <rect x="510" y="34" width="11" height="11" rx="2" fill="#0e4429"/>
    <rect x="510" y="48" width="11" height="11" rx="2" fill="#26a641"/>
    <rect x="510" y="62" width="11" height="11" rx="2" fill="#0e4429"/>
    <rect x="510" y="76" width="11" height="11" rx="2" fill="#26a641"/>
    <rect x="510" y="90" width="11" height="11" rx="2" fill="#0e4429"/>
    <rect x="510" y="104" width="11" height="11" rx="2" fill="#0e4429"/>
    <rect x="524" y="20" width="11" height="11" rx="2" fill="#0e4429"/>
    <rect x="524" y="34" width="11" height="11" rx="2" fill="#161b22"/>
    <rect x="524" y="48" width="11" height="11" rx="2" fill="#0e4429"/>
    <rect x="524" y="62" width="11" height="11" rx="2" fill="#161b22"/>
    <rect x="524" y="76" width="11" height="11" rx="2" fill="#161b22"/>
    <rect x="524" y="90" width="11" height="11" rx="2" fill="#006d32"/>
    <rect x="524" y="104" width="11" height="11" rx="2" fill="#161b22"/>
    <rect x="538" y="20" width="11" height="11" rx="2" fill="#0e4429"/>
    <rect x="538" y="34" width="11" height="11" rx="2" fill="#006d32"/>
    <rect x="538" y="48" width="11" height="11" rx="2" fill="#0e4429"/>
    <rect x="538" y="62" width="11" height="11" rx="2" fill="#161b22"/>
    <rect x="538" y="76" width="11" height="11" rx="2" fill="#0e4429"/>
    <rect x="538" y="90" width="11" height="11" rx="2" fill="#0e4429"/>
    <rect x="538" y="104" width="11" height="11" rx="2" fill="#006d32"/>
    <rect x="552" y="20" width="11" height="11" rx="2" fill="#161b22"/>
    <rect x="552" y="34" width="11" height="11" rx="2" fill="#0e4429"/>
    <rect x="552" y="48" width="11" height="11" rx="2" fill="#161b22"/>
    <rect x="552" y="62" width="11" height="11" rx="2" fill="#161b22"/>
    <rect x="552" y="76" width="11" height="11" rx="2" fill="#006d32"/>
    <rect x="552" y="90" width="11" height="11" rx="2" fill="#0e4429"/>
    <rect x="552" y="104" width="11" height="11" rx="2" fill="#0e4429"/>
    <rect x="566" y="20" width="11" height="11" rx="2" fill="#006d32"/>
    <rect x="566" y="34" width="11" height="11" rx="2" fill="#26a641"/>
    <rect x="566" y="48" width="11" height="11" rx="2" fill="#0e4429"/>
    <rect x="566" y="62" width="11" height="11" rx="2" fill="#006d32"/>
    <rect x="566" y="76" width="11" height="11" rx="2" fill="#0e4429"/>
    <rect x="566" y="90" width="11" height="11" rx="2" fill="#0e4429"/>
    <rect x="566" y="104" width="11" height="11" rx="2" fill="#006d32"/>
    <rect x="580" y="20" width="11" height="11" rx="2" fill="#0e4429"/>
    <rect x="580" y="34" width="11" height="11" rx="2" fill="#0e4429"/>
    <rect x="580" y="48" width="11" height="11" rx="2" fill="#0e4429"/>
    <rect x="580" y="62" width="11" height="11" rx="2" fill="#39d353"/>
    <rect x="580" y="76" width="11" height="11" rx="2" fill="#006d32"/>
    <rect x="580" y="90" width="11" height="11" rx="2" fill="#26a641"/>
    <rect x="580" y="104" width="11" height="11" rx="2" fill="#39d353"/>
    <rect x="594" y="20" width="11" height="11" rx="2" fill="#161b22"/>
    <rect x="594" y="34" width="11" height="11" rx="2" fill="#0e4429"/>
    <rect x="594" y="48" width="11" height="11" rx="2" fill="#39d353"/>
    <rect x="594" y="62" width="11" height="11" rx="2" fill="#26a641"/>
    <rect x="594" y="76" width="11" height="11" rx="2" fill="#161b22"/>
    <rect x="594" y="90" width="11" height="11" rx="2" fill="#161b22"/>
    <rect x="594" y="104" width="11" height="11" rx="2" fill="#0e4429"/>
    <rect x="608" y="20" width="11" height="11" rx="2" fill="#161b22"/>
    <rect x="608" y="34" width="11" height="11" rx="2" fill="#161b22"/>
    <rect x="608" y="48" width="11" height="11" rx="2" fill="#161b22"/>
    <rect x="608" y="62" width="11" height="11" rx="2" fill="#006d32"/>
    <rect x="608" y="76" width="11" height="11" rx="2" fill="#006d32"/>
    <rect x="608" y="90" width="11" height="11" rx="2" fill="#26a641"/>
    <rect x="608" y="104" width="11" height="11" rx="2" fill="#161b22"/>
    <rect x="622" y="20" width="11" height="11" rx="2" fill="#006d32"/>
    <rect x="622" y="34" width="11" height="11" rx="2" fill="#006d32"/>
    <rect x="622" y="48" width="11" height="11" rx="2" fill="#161b22"/>
    <rect x="622" y="62" width="11" height="11" rx="2" fill="#26a641"/>
    <rect x="622" y="76" width="11" height="11" rx="2" fill="#39d353"/>
    <rect x="622" y="90" width="11" height="11" rx="2" fill="#161b22"/>
    <rect x="622" y="104" width="11" height="11" rx="2" fill="#39d353"/>
    <rect x="636" y="20" width="11" height="11" rx="2" fill="#0e4429"/>
    <rect x="636" y="34" width="11" height="11" rx="2" fill="#0e4429"/>
    <rect x="636" y="48" width="11" height="11" rx="2" fill="#39d353"/>
    <rect x="636" y="62" width="11" height="11" rx="2" fill="#26a641"/>
    <rect x="636" y="76" width="11" height="11" rx="2" fill="#161b22"/>
    <rect x="636" y="90" width="11" height="11" rx="2" fill="#0e4429"/>
    <rect x="636" y="104" width="11" height="11" rx="2" fill="#0e4429"/>
    <rect x="650" y="20" width="11" height="11" rx="2" fill="#161b22"/>
    <rect x="650" y="34" width="11" height="11" rx="2" fill="#161b22"/>
    <rect x="650" y="48" width="11" height="11" rx="2" fill="#161b22"/>
    <rect x="650" y="62" width="11" height="11" rx="2" fill="#006d32"/>
    <rect x="650" y="76" width="11" height="11" rx="2" fill="#161b22"/>
    <rect x="650" y="90" width="11" height="11" rx="2" fill="#0e4429"/>
    <rect x="650" y="104" width="11" height="11" rx="2" fill="#0e4429"/>
    <rect x="664" y="20" width="11" height="11" rx="2" fill="#161b22"/>
    <rect x="664" y="34" width="11" height="11" rx="2" fill="#161b22"/>
    <rect x="664" y="48" width="11" height="11" rx="2" fill="#006d32"/>
    <rect x="664" y="62" width="11" height="11" rx="2" fill="#0e4429"/>
    <rect x="664" y="76" width="11" height="11" rx="2" fill="#161b22"/>
    <rect x="664" y="90" width="11" height="11" rx="2" fill="#39d353"/>
    <rect x="664" y="104" width="11" height="11" rx="2" fill="#006d32"/>
    <rect x="678" y="20" width="11" height="11" rx="2" fill="#39d353"/>
    <rect x="678" y="34" width="11" height="11" rx="2" fill="#161b22"/>
    <rect x="678" y="48" width="11" height="11" rx="2" fill="#161b22"/>
    <rect x="678" y="62" width="11" height="11" rx="2" fill="#161b22"/>
    <rect x="678" y="76" width="11" height="11" rx="2" fill="#006d32"/>
    <rect x="678" y="90" width="11" height="11" rx="2" fill="#161b22"/>
    <rect x="678" y="104" width="11" height="11" rx="2" fill="#161b22"/>
    <rect x="692" y="20" width="11" height="11" rx="2" fill="#0e4429"/>
    <rect x="692" y="34" width="11" height="11" rx="2" fill="#26a641"/>
    <rect x="692" y="48" width="11" height="11" rx="2" fill="#26a641"/>
    <rect x="692" y="62" width="11" height="11" rx="2" fill="#161b22"/>
    <rect x="692" y="76" width="11" height="11" rx="2" fill="#161b22"/>
    <rect x="692" y="90" width="11" height="11" rx="2" fill="#26a641"/>
    <rect x="692" y="104" width="11" height="11" rx="2" fill="#0e4429"/>
    <rect x="706" y="20" width="11" height="11" rx="2" fill="#006d32"/>
    <rect x="706" y="34" width="11" height="11" rx="2" fill="#161b22"/>
    <rect x="706" y="48" width="11" height="11" rx="2" fill="#161b22"/>
    <rect x="706" y="62" width="11" height="11" rx="2" fill="#006d32"/>
    <rect x="706" y="76" width="11" height="11" rx="2" fill="#0e4429"/>
    <rect x="706" y="90" width="11" height="11" rx="2" fill="#161b22"/>
    <rect x="706" y="104" width="11" height="11" rx="2" fill="#39d353"/>
    <rect x="720" y="20" width="11" height="11" rx="2" fill="#006d32"/>
    <rect x="720" y="34" width="11" height="11" rx="2" fill="#26a641"/>
    <rect x="720" y="48" width="11" height="11" rx="2" fill="#161b22"/>
    <rect x="720" y="62" width="11" height="11" rx="2" fill="#26a641"/>
    <rect x="720" y="76" width="11" height="11" rx="2" fill="#161b22"/>
    <rect x="720" y="90" width="11" height="11" rx="2" fill="#26a641"/>
    <rect x="720" y="104" width="11" height="11" rx="2" fill="#0e4429"/>
    <rect x="734" y="20" width="11" height="11" rx="2" fill="#161b22"/>
    <rect x="734" y="34" width="11" height="11" rx="2" fill="#0e4429"/>
    <rect x="734" y="48" width="11" height="11" rx="2" fill="#39d353"/>
    <rect x="734" y="62" width="11" height="11" rx="2" fill="#161b22"/>
    <rect x="734" y="76" width="11" height="11" rx="2" fill="#161b22"/>
    <rect x="734" y="90" width="11" height="11" rx="2" fill="#0e4429"/>
    <rect x="734" y="104" width="11" height="11" rx="2" fill="#161b22"/>
    <rect x="748" y="20" width="11" height="11" rx="2" fill="#161b22"/>
    <rect x="748" y="34" width="11" height="11" rx="2" fill="#161b22"/>
    <rect x="748" y="48" width="11" height="11" rx="2" fill="#161b22"/>
    <rect x="748" y="62" width="11" height="11" rx="2" fill="#161b22"/>
    <rect x="748" y="76" width="11" height="11" rx="2" fill="#161b22"/>
    <rect x="748" y="90" width="11" height="11" rx="2" fill="#161b22"/>
    <rect x="748" y="104" width="11" height="11" rx="2" fill="#006d32"/>
  </g>

  <!-- 4 sharks, new colors, fully opaque, correctly oriented head-first -->
  <use href="#sharkShapeYellow" xlink:href="#sharkShapeYellow" transform="scale(0.55)">
    <animateMotion dur="14s" begin="0.5s" repeatCount="indefinite" rotate="auto-reverse">
      <mpath href="#swimPathYellowShark" xlink:href="#swimPathYellowShark"/>
    </animateMotion>
  </use>
  <use href="#sharkShapePink" xlink:href="#sharkShapePink" transform="scale(0.5)">
    <animateMotion dur="16.5s" begin="4s" repeatCount="indefinite" rotate="auto-reverse">
      <mpath href="#swimPathPinkShark" xlink:href="#swimPathPinkShark"/>
    </animateMotion>
  </use>
  <use href="#sharkShapeCyan" xlink:href="#sharkShapeCyan" transform="scale(0.45)">
    <animateMotion dur="11.5s" begin="2s" repeatCount="indefinite" rotate="auto-reverse">
      <mpath href="#swimPathCyanShark" xlink:href="#swimPathCyanShark"/>
    </animateMotion>
  </use>
  <use href="#sharkShapeAmber" xlink:href="#sharkShapeAmber" transform="scale(0.6)">
    <animateMotion dur="18s" begin="7s" repeatCount="indefinite" rotate="auto-reverse">
      <mpath href="#swimPathAmberShark" xlink:href="#swimPathAmberShark"/>
    </animateMotion>
  </use>

  <!-- rising bubbles -->
  <g opacity="0">
    <circle cx="316" cy="128" r="3.3" fill="#8ecfff"/>
    <animate attributeName="opacity" values="0;0.39;0.39;0" keyTimes="0;0.1;0.85;1" dur="5.3s" begin="5.3s" repeatCount="indefinite"/>
    <animateMotion dur="5.3s" begin="5.3s" repeatCount="indefinite"
      path="M 0,0 C 2.5,-44.8 -2.5,-89.6 5,-128"/>
  </g>
  <g opacity="0">
    <circle cx="153" cy="128" r="3.0" fill="#8ecfff"/>
    <animate attributeName="opacity" values="0;0.44;0.44;0" keyTimes="0;0.1;0.85;1" dur="5.9s" begin="0.1s" repeatCount="indefinite"/>
    <animateMotion dur="5.9s" begin="0.1s" repeatCount="indefinite"
      path="M 0,0 C -5.0,-44.8 --5.0,-89.6 -10,-128"/>
  </g>
  <g opacity="0">
    <circle cx="128" cy="128" r="1.7" fill="#8ecfff"/>
    <animate attributeName="opacity" values="0;0.41;0.41;0" keyTimes="0;0.1;0.85;1" dur="7.5s" begin="3.8s" repeatCount="indefinite"/>
    <animateMotion dur="7.5s" begin="3.8s" repeatCount="indefinite"
      path="M 0,0 C 5.0,-44.8 -5.0,-89.6 10,-128"/>
  </g>
  <g opacity="0">
    <circle cx="387" cy="128" r="3.0" fill="#8ecfff"/>
    <animate attributeName="opacity" values="0;0.37;0.37;0" keyTimes="0;0.1;0.85;1" dur="5.7s" begin="0.3s" repeatCount="indefinite"/>
    <animateMotion dur="5.7s" begin="0.3s" repeatCount="indefinite"
      path="M 0,0 C -2.5,-44.8 --2.5,-89.6 -5,-128"/>
  </g>
  <g opacity="0">
    <circle cx="655" cy="128" r="1.9" fill="#8ecfff"/>
    <animate attributeName="opacity" values="0;0.51;0.51;0" keyTimes="0;0.1;0.85;1" dur="7.6s" begin="5.1s" repeatCount="indefinite"/>
    <animateMotion dur="7.6s" begin="5.1s" repeatCount="indefinite"
      path="M 0,0 C 2.5,-44.8 -2.5,-89.6 5,-128"/>
  </g>
  <g opacity="0">
    <circle cx="696" cy="128" r="3.4" fill="#8ecfff"/>
    <animate attributeName="opacity" values="0;0.32;0.32;0" keyTimes="0;0.1;0.85;1" dur="7.0s" begin="7.3s" repeatCount="indefinite"/>
    <animateMotion dur="7.0s" begin="7.3s" repeatCount="indefinite"
      path="M 0,0 C 5.0,-44.8 -5.0,-89.6 10,-128"/>
  </g>
  <g opacity="0">
    <circle cx="624" cy="128" r="3.1" fill="#8ecfff"/>
    <animate attributeName="opacity" values="0;0.49;0.49;0" keyTimes="0;0.1;0.85;1" dur="7.4s" begin="1.5s" repeatCount="indefinite"/>
    <animateMotion dur="7.4s" begin="1.5s" repeatCount="indefinite"
      path="M 0,0 C 2.5,-44.8 -2.5,-89.6 5,-128"/>
  </g>
  <g opacity="0">
    <circle cx="709" cy="128" r="3.1" fill="#8ecfff"/>
    <animate attributeName="opacity" values="0;0.3;0.3;0" keyTimes="0;0.1;0.85;1" dur="5.7s" begin="1.0s" repeatCount="indefinite"/>
    <animateMotion dur="5.7s" begin="1.0s" repeatCount="indefinite"
      path="M 0,0 C -5.0,-44.8 --5.0,-89.6 -10,-128"/>
  </g>
  <g opacity="0">
    <circle cx="601" cy="128" r="2.1" fill="#8ecfff"/>
    <animate attributeName="opacity" values="0;0.36;0.36;0" keyTimes="0;0.1;0.85;1" dur="7.0s" begin="7.4s" repeatCount="indefinite"/>
    <animateMotion dur="7.0s" begin="7.4s" repeatCount="indefinite"
      path="M 0,0 C 2.5,-44.8 -2.5,-89.6 5,-128"/>
  </g>
  <g opacity="0">
    <circle cx="315" cy="128" r="2.6" fill="#8ecfff"/>
    <animate attributeName="opacity" values="0;0.33;0.33;0" keyTimes="0;0.1;0.85;1" dur="8.1s" begin="4.1s" repeatCount="indefinite"/>
    <animateMotion dur="8.1s" begin="4.1s" repeatCount="indefinite"
      path="M 0,0 C -2.5,-44.8 --2.5,-89.6 -5,-128"/>
  </g>
  <g opacity="0">
    <circle cx="129" cy="128" r="2.7" fill="#8ecfff"/>
    <animate attributeName="opacity" values="0;0.41;0.41;0" keyTimes="0;0.1;0.85;1" dur="5.4s" begin="7.2s" repeatCount="indefinite"/>
    <animateMotion dur="5.4s" begin="7.2s" repeatCount="indefinite"
      path="M 0,0 C 2.5,-44.8 -2.5,-89.6 5,-128"/>
  </g>
  <g opacity="0">
    <circle cx="578" cy="128" r="1.8" fill="#8ecfff"/>
    <animate attributeName="opacity" values="0;0.38;0.38;0" keyTimes="0;0.1;0.85;1" dur="7.6s" begin="0.9s" repeatCount="indefinite"/>
    <animateMotion dur="7.6s" begin="0.9s" repeatCount="indefinite"
      path="M 0,0 C 5.0,-44.8 -5.0,-89.6 10,-128"/>
  </g>
  <g opacity="0">
    <circle cx="54" cy="128" r="1.6" fill="#8ecfff"/>
    <animate attributeName="opacity" values="0;0.5;0.5;0" keyTimes="0;0.1;0.85;1" dur="6.5s" begin="0.2s" repeatCount="indefinite"/>
    <animateMotion dur="6.5s" begin="0.2s" repeatCount="indefinite"
      path="M 0,0 C -5.0,-44.8 --5.0,-89.6 -10,-128"/>
  </g>
  <g opacity="0">
    <circle cx="247" cy="128" r="3.1" fill="#8ecfff"/>
    <animate attributeName="opacity" values="0;0.55;0.55;0" keyTimes="0;0.1;0.85;1" dur="8.3s" begin="4.8s" repeatCount="indefinite"/>
    <animateMotion dur="8.3s" begin="4.8s" repeatCount="indefinite"
      path="M 0,0 C -5.0,-44.8 --5.0,-89.6 -10,-128"/>
  </g>
</svg>
