<svg width="782" height="170" viewBox="0 0 782 170" xmlns="http://www.w3.org/2000/svg" xmlns:xlink="http://www.w3.org/1999/xlink">
  <defs>
    <path id="swimPathOrangeMid" d="M -40,60.0 C 6.200000000000003,18.0 52.400000000000006,18.0 100,60.0 C 146.2,102.0 192.4,102.0 240,60.0 C 286.2,18.0 332.4,18.0 380,60.0 C 426.2,102.0 472.4,102.0 520,60.0 C 566.2,18.0 612.4,18.0 660,60.0 C 706.2,102.0 752.4,102.0 800,60.0 C 846.2,18.0 892.4,18.0 940,60.0" fill="none"/>
    <path id="swimPathTealMid" d="M -40,115.0 C -1.0599999999999952,151.0 37.88000000000001,151.0 78,115.0 C 116.94,79.0 155.88,79.0 196,115.0 C 234.94,151.0 273.88,151.0 314,115.0 C 352.94,79.0 391.88,79.0 432,115.0 C 470.94,151.0 509.88,151.0 550,115.0 C 588.94,79.0 627.88,79.0 668,115.0 C 706.94,151.0 745.88,151.0 786,115.0 C 824.94,79.0 863.88,79.0 904,115.0" fill="none"/>
    <path id="swimPathBlueMid" d="M -40,80.0 C -7.990000000000002,50.0 24.019999999999996,50.0 57,80.0 C 89.00999999999999,110.0 121.02,110.0 154,80.0 C 186.01,50.0 218.01999999999998,50.0 251,80.0 C 283.01,110.0 315.02,110.0 348,80.0 C 380.01,50.0 412.02,50.0 445,80.0 C 477.01,110.0 509.02,110.0 542,80.0 C 574.01,50.0 606.02,50.0 639,80.0 C 671.01,110.0 703.02,110.0 736,80.0 C 768.01,50.0 800.02,50.0 833,80.0" fill="none"/>
    <path id="swimPathGreenMid" d="M -40,93.0 C 3.230000000000004,141.0 46.46000000000001,141.0 91,93.0 C 134.23000000000002,45.0 177.46,45.0 222,93.0 C 265.23,141.0 308.46000000000004,141.0 353,93.0 C 396.23,45.0 439.46000000000004,45.0 484,93.0 C 527.23,141.0 570.46,141.0 615,93.0 C 658.23,45.0 701.46,45.0 746,93.0 C 789.23,141.0 832.46,141.0 877,93.0" fill="none"/>
    <g id="fishShapeOrangeMid">
      <path d="M -2,-8 Q 14,-13 24,0 Q 14,13 -2,8 Q -8,4 -9,0 Q -8,-4 -2,-8 Z" fill="#f0883e"/>
      <path d="M -9,0 L -20,-9 Q -15,0 -20,9 Z" fill="#d1691d"/>
      <path d="M 4,-9 Q 8,-15 13,-11 Q 9,-7 4,-9 Z" fill="#d1691d" opacity="0.9"/>
      <circle cx="15" cy="-2" r="1.8" fill="#0d1117"/>
    </g>
    <g id="fishShapeTealMid">
      <path d="M -2,-8 Q 14,-13 24,0 Q 14,13 -2,8 Q -8,4 -9,0 Q -8,-4 -2,-8 Z" fill="#39c5cf"/>
      <path d="M -9,0 L -20,-9 Q -15,0 -20,9 Z" fill="#2895a1"/>
      <path d="M 4,-9 Q 8,-15 13,-11 Q 9,-7 4,-9 Z" fill="#2895a1" opacity="0.9"/>
      <circle cx="15" cy="-2" r="1.8" fill="#0d1117"/>
    </g>
    <g id="fishShapeBlueMid">
      <path d="M -2,-8 Q 14,-13 24,0 Q 14,13 -2,8 Q -8,4 -9,0 Q -8,-4 -2,-8 Z" fill="#58a6ff"/>
      <path d="M -9,0 L -20,-9 Q -15,0 -20,9 Z" fill="#3d7fd6"/>
      <path d="M 4,-9 Q 8,-15 13,-11 Q 9,-7 4,-9 Z" fill="#3d7fd6" opacity="0.9"/>
      <circle cx="15" cy="-2" r="1.8" fill="#0d1117"/>
    </g>
    <g id="fishShapeGreenMid">
      <path d="M -2,-8 Q 14,-13 24,0 Q 14,13 -2,8 Q -8,4 -9,0 Q -8,-4 -2,-8 Z" fill="#39d353"/>
      <path d="M -9,0 L -20,-9 Q -15,0 -20,9 Z" fill="#2ea043"/>
      <path d="M 4,-9 Q 8,-15 13,-11 Q 9,-7 4,-9 Z" fill="#2ea043" opacity="0.9"/>
      <circle cx="15" cy="-2" r="1.8" fill="#0d1117"/>
    </g>
  </defs>

  <!-- background: contribution-graph-style grid -->
  <g>
    <rect x="20" y="20" width="11" height="11" rx="2" fill="#161b22"/>
    <rect x="20" y="34" width="11" height="11" rx="2" fill="#161b22"/>
    <rect x="20" y="48" width="11" height="11" rx="2" fill="#006d32"/>
    <rect x="20" y="62" width="11" height="11" rx="2" fill="#161b22"/>
    <rect x="20" y="76" width="11" height="11" rx="2" fill="#0e4429"/>
    <rect x="20" y="90" width="11" height="11" rx="2" fill="#0e4429"/>
    <rect x="20" y="104" width="11" height="11" rx="2" fill="#161b22"/>
    <rect x="34" y="20" width="11" height="11" rx="2" fill="#0e4429"/>
    <rect x="34" y="34" width="11" height="11" rx="2" fill="#161b22"/>
    <rect x="34" y="48" width="11" height="11" rx="2" fill="#0e4429"/>
    <rect x="34" y="62" width="11" height="11" rx="2" fill="#161b22"/>
    <rect x="34" y="76" width="11" height="11" rx="2" fill="#161b22"/>
    <rect x="34" y="90" width="11" height="11" rx="2" fill="#0e4429"/>
    <rect x="34" y="104" width="11" height="11" rx="2" fill="#26a641"/>
    <rect x="48" y="20" width="11" height="11" rx="2" fill="#161b22"/>
    <rect x="48" y="34" width="11" height="11" rx="2" fill="#161b22"/>
    <rect x="48" y="48" width="11" height="11" rx="2" fill="#006d32"/>
    <rect x="48" y="62" width="11" height="11" rx="2" fill="#39d353"/>
    <rect x="48" y="76" width="11" height="11" rx="2" fill="#0e4429"/>
    <rect x="48" y="90" width="11" height="11" rx="2" fill="#0e4429"/>
    <rect x="48" y="104" width="11" height="11" rx="2" fill="#39d353"/>
    <rect x="62" y="20" width="11" height="11" rx="2" fill="#161b22"/>
    <rect x="62" y="34" width="11" height="11" rx="2" fill="#26a641"/>
    <rect x="62" y="48" width="11" height="11" rx="2" fill="#161b22"/>
    <rect x="62" y="62" width="11" height="11" rx="2" fill="#161b22"/>
    <rect x="62" y="76" width="11" height="11" rx="2" fill="#161b22"/>
    <rect x="62" y="90" width="11" height="11" rx="2" fill="#161b22"/>
    <rect x="62" y="104" width="11" height="11" rx="2" fill="#26a641"/>
    <rect x="76" y="20" width="11" height="11" rx="2" fill="#161b22"/>
    <rect x="76" y="34" width="11" height="11" rx="2" fill="#0e4429"/>
    <rect x="76" y="48" width="11" height="11" rx="2" fill="#006d32"/>
    <rect x="76" y="62" width="11" height="11" rx="2" fill="#0e4429"/>
    <rect x="76" y="76" width="11" height="11" rx="2" fill="#0e4429"/>
    <rect x="76" y="90" width="11" height="11" rx="2" fill="#161b22"/>
    <rect x="76" y="104" width="11" height="11" rx="2" fill="#161b22"/>
    <rect x="90" y="20" width="11" height="11" rx="2" fill="#161b22"/>
    <rect x="90" y="34" width="11" height="11" rx="2" fill="#006d32"/>
    <rect x="90" y="48" width="11" height="11" rx="2" fill="#0e4429"/>
    <rect x="90" y="62" width="11" height="11" rx="2" fill="#161b22"/>
    <rect x="90" y="76" width="11" height="11" rx="2" fill="#0e4429"/>
    <rect x="90" y="90" width="11" height="11" rx="2" fill="#0e4429"/>
    <rect x="90" y="104" width="11" height="11" rx="2" fill="#161b22"/>
    <rect x="104" y="20" width="11" height="11" rx="2" fill="#006d32"/>
    <rect x="104" y="34" width="11" height="11" rx="2" fill="#006d32"/>
    <rect x="104" y="48" width="11" height="11" rx="2" fill="#161b22"/>
    <rect x="104" y="62" width="11" height="11" rx="2" fill="#0e4429"/>
    <rect x="104" y="76" width="11" height="11" rx="2" fill="#0e4429"/>
    <rect x="104" y="90" width="11" height="11" rx="2" fill="#26a641"/>
    <rect x="104" y="104" width="11" height="11" rx="2" fill="#006d32"/>
    <rect x="118" y="20" width="11" height="11" rx="2" fill="#161b22"/>
    <rect x="118" y="34" width="11" height="11" rx="2" fill="#39d353"/>
    <rect x="118" y="48" width="11" height="11" rx="2" fill="#161b22"/>
    <rect x="118" y="62" width="11" height="11" rx="2" fill="#0e4429"/>
    <rect x="118" y="76" width="11" height="11" rx="2" fill="#006d32"/>
    <rect x="118" y="90" width="11" height="11" rx="2" fill="#161b22"/>
    <rect x="118" y="104" width="11" height="11" rx="2" fill="#0e4429"/>
    <rect x="132" y="20" width="11" height="11" rx="2" fill="#161b22"/>
    <rect x="132" y="34" width="11" height="11" rx="2" fill="#006d32"/>
    <rect x="132" y="48" width="11" height="11" rx="2" fill="#006d32"/>
    <rect x="132" y="62" width="11" height="11" rx="2" fill="#0e4429"/>
    <rect x="132" y="76" width="11" height="11" rx="2" fill="#26a641"/>
    <rect x="132" y="90" width="11" height="11" rx="2" fill="#161b22"/>
    <rect x="132" y="104" width="11" height="11" rx="2" fill="#006d32"/>
    <rect x="146" y="20" width="11" height="11" rx="2" fill="#0e4429"/>
    <rect x="146" y="34" width="11" height="11" rx="2" fill="#0e4429"/>
    <rect x="146" y="48" width="11" height="11" rx="2" fill="#0e4429"/>
    <rect x="146" y="62" width="11" height="11" rx="2" fill="#26a641"/>
    <rect x="146" y="76" width="11" height="11" rx="2" fill="#39d353"/>
    <rect x="146" y="90" width="11" height="11" rx="2" fill="#0e4429"/>
    <rect x="146" y="104" width="11" height="11" rx="2" fill="#006d32"/>
    <rect x="160" y="20" width="11" height="11" rx="2" fill="#161b22"/>
    <rect x="160" y="34" width="11" height="11" rx="2" fill="#006d32"/>
    <rect x="160" y="48" width="11" height="11" rx="2" fill="#006d32"/>
    <rect x="160" y="62" width="11" height="11" rx="2" fill="#39d353"/>
    <rect x="160" y="76" width="11" height="11" rx="2" fill="#26a641"/>
    <rect x="160" y="90" width="11" height="11" rx="2" fill="#161b22"/>
    <rect x="160" y="104" width="11" height="11" rx="2" fill="#0e4429"/>
    <rect x="174" y="20" width="11" height="11" rx="2" fill="#006d32"/>
    <rect x="174" y="34" width="11" height="11" rx="2" fill="#161b22"/>
    <rect x="174" y="48" width="11" height="11" rx="2" fill="#0e4429"/>
    <rect x="174" y="62" width="11" height="11" rx="2" fill="#161b22"/>
    <rect x="174" y="76" width="11" height="11" rx="2" fill="#161b22"/>
    <rect x="174" y="90" width="11" height="11" rx="2" fill="#161b22"/>
    <rect x="174" y="104" width="11" height="11" rx="2" fill="#006d32"/>
    <rect x="188" y="20" width="11" height="11" rx="2" fill="#161b22"/>
    <rect x="188" y="34" width="11" height="11" rx="2" fill="#161b22"/>
    <rect x="188" y="48" width="11" height="11" rx="2" fill="#0e4429"/>
    <rect x="188" y="62" width="11" height="11" rx="2" fill="#26a641"/>
    <rect x="188" y="76" width="11" height="11" rx="2" fill="#161b22"/>
    <rect x="188" y="90" width="11" height="11" rx="2" fill="#0e4429"/>
    <rect x="188" y="104" width="11" height="11" rx="2" fill="#0e4429"/>
    <rect x="202" y="20" width="11" height="11" rx="2" fill="#26a641"/>
    <rect x="202" y="34" width="11" height="11" rx="2" fill="#26a641"/>
    <rect x="202" y="48" width="11" height="11" rx="2" fill="#26a641"/>
    <rect x="202" y="62" width="11" height="11" rx="2" fill="#161b22"/>
    <rect x="202" y="76" width="11" height="11" rx="2" fill="#0e4429"/>
    <rect x="202" y="90" width="11" height="11" rx="2" fill="#0e4429"/>
    <rect x="202" y="104" width="11" height="11" rx="2" fill="#26a641"/>
    <rect x="216" y="20" width="11" height="11" rx="2" fill="#39d353"/>
    <rect x="216" y="34" width="11" height="11" rx="2" fill="#161b22"/>
    <rect x="216" y="48" width="11" height="11" rx="2" fill="#161b22"/>
    <rect x="216" y="62" width="11" height="11" rx="2" fill="#161b22"/>
    <rect x="216" y="76" width="11" height="11" rx="2" fill="#161b22"/>
    <rect x="216" y="90" width="11" height="11" rx="2" fill="#0e4429"/>
    <rect x="216" y="104" width="11" height="11" rx="2" fill="#0e4429"/>
    <rect x="230" y="20" width="11" height="11" rx="2" fill="#161b22"/>
    <rect x="230" y="34" width="11" height="11" rx="2" fill="#161b22"/>
    <rect x="230" y="48" width="11" height="11" rx="2" fill="#0e4429"/>
    <rect x="230" y="62" width="11" height="11" rx="2" fill="#0e4429"/>
    <rect x="230" y="76" width="11" height="11" rx="2" fill="#0e4429"/>
    <rect x="230" y="90" width="11" height="11" rx="2" fill="#39d353"/>
    <rect x="230" y="104" width="11" height="11" rx="2" fill="#006d32"/>
    <rect x="244" y="20" width="11" height="11" rx="2" fill="#0e4429"/>
    <rect x="244" y="34" width="11" height="11" rx="2" fill="#006d32"/>
    <rect x="244" y="48" width="11" height="11" rx="2" fill="#006d32"/>
    <rect x="244" y="62" width="11" height="11" rx="2" fill="#161b22"/>
    <rect x="244" y="76" width="11" height="11" rx="2" fill="#26a641"/>
    <rect x="244" y="90" width="11" height="11" rx="2" fill="#006d32"/>
    <rect x="244" y="104" width="11" height="11" rx="2" fill="#26a641"/>
    <rect x="258" y="20" width="11" height="11" rx="2" fill="#006d32"/>
    <rect x="258" y="34" width="11" height="11" rx="2" fill="#0e4429"/>
    <rect x="258" y="48" width="11" height="11" rx="2" fill="#0e4429"/>
    <rect x="258" y="62" width="11" height="11" rx="2" fill="#161b22"/>
    <rect x="258" y="76" width="11" height="11" rx="2" fill="#006d32"/>
    <rect x="258" y="90" width="11" height="11" rx="2" fill="#161b22"/>
    <rect x="258" y="104" width="11" height="11" rx="2" fill="#161b22"/>
    <rect x="272" y="20" width="11" height="11" rx="2" fill="#161b22"/>
    <rect x="272" y="34" width="11" height="11" rx="2" fill="#161b22"/>
    <rect x="272" y="48" width="11" height="11" rx="2" fill="#161b22"/>
    <rect x="272" y="62" width="11" height="11" rx="2" fill="#161b22"/>
    <rect x="272" y="76" width="11" height="11" rx="2" fill="#161b22"/>
    <rect x="272" y="90" width="11" height="11" rx="2" fill="#161b22"/>
    <rect x="272" y="104" width="11" height="11" rx="2" fill="#161b22"/>
    <rect x="286" y="20" width="11" height="11" rx="2" fill="#0e4429"/>
    <rect x="286" y="34" width="11" height="11" rx="2" fill="#161b22"/>
    <rect x="286" y="48" width="11" height="11" rx="2" fill="#26a641"/>
    <rect x="286" y="62" width="11" height="11" rx="2" fill="#006d32"/>
    <rect x="286" y="76" width="11" height="11" rx="2" fill="#161b22"/>
    <rect x="286" y="90" width="11" height="11" rx="2" fill="#161b22"/>
    <rect x="286" y="104" width="11" height="11" rx="2" fill="#161b22"/>
    <rect x="300" y="20" width="11" height="11" rx="2" fill="#0e4429"/>
    <rect x="300" y="34" width="11" height="11" rx="2" fill="#161b22"/>
    <rect x="300" y="48" width="11" height="11" rx="2" fill="#26a641"/>
    <rect x="300" y="62" width="11" height="11" rx="2" fill="#39d353"/>
    <rect x="300" y="76" width="11" height="11" rx="2" fill="#0e4429"/>
    <rect x="300" y="90" width="11" height="11" rx="2" fill="#0e4429"/>
    <rect x="300" y="104" width="11" height="11" rx="2" fill="#161b22"/>
    <rect x="314" y="20" width="11" height="11" rx="2" fill="#161b22"/>
    <rect x="314" y="34" width="11" height="11" rx="2" fill="#161b22"/>
    <rect x="314" y="48" width="11" height="11" rx="2" fill="#161b22"/>
    <rect x="314" y="62" width="11" height="11" rx="2" fill="#26a641"/>
    <rect x="314" y="76" width="11" height="11" rx="2" fill="#161b22"/>
    <rect x="314" y="90" width="11" height="11" rx="2" fill="#161b22"/>
    <rect x="314" y="104" width="11" height="11" rx="2" fill="#39d353"/>
    <rect x="328" y="20" width="11" height="11" rx="2" fill="#0e4429"/>
    <rect x="328" y="34" width="11" height="11" rx="2" fill="#161b22"/>
    <rect x="328" y="48" width="11" height="11" rx="2" fill="#0e4429"/>
    <rect x="328" y="62" width="11" height="11" rx="2" fill="#161b22"/>
    <rect x="328" y="76" width="11" height="11" rx="2" fill="#0e4429"/>
    <rect x="328" y="90" width="11" height="11" rx="2" fill="#39d353"/>
    <rect x="328" y="104" width="11" height="11" rx="2" fill="#26a641"/>
    <rect x="342" y="20" width="11" height="11" rx="2" fill="#006d32"/>
    <rect x="342" y="34" width="11" height="11" rx="2" fill="#161b22"/>
    <rect x="342" y="48" width="11" height="11" rx="2" fill="#0e4429"/>
    <rect x="342" y="62" width="11" height="11" rx="2" fill="#161b22"/>
    <rect x="342" y="76" width="11" height="11" rx="2" fill="#006d32"/>
    <rect x="342" y="90" width="11" height="11" rx="2" fill="#0e4429"/>
    <rect x="342" y="104" width="11" height="11" rx="2" fill="#006d32"/>
    <rect x="356" y="20" width="11" height="11" rx="2" fill="#161b22"/>
    <rect x="356" y="34" width="11" height="11" rx="2" fill="#161b22"/>
    <rect x="356" y="48" width="11" height="11" rx="2" fill="#26a641"/>
    <rect x="356" y="62" width="11" height="11" rx="2" fill="#39d353"/>
    <rect x="356" y="76" width="11" height="11" rx="2" fill="#26a641"/>
    <rect x="356" y="90" width="11" height="11" rx="2" fill="#26a641"/>
    <rect x="356" y="104" width="11" height="11" rx="2" fill="#26a641"/>
    <rect x="370" y="20" width="11" height="11" rx="2" fill="#006d32"/>
    <rect x="370" y="34" width="11" height="11" rx="2" fill="#161b22"/>
    <rect x="370" y="48" width="11" height="11" rx="2" fill="#0e4429"/>
    <rect x="370" y="62" width="11" height="11" rx="2" fill="#0e4429"/>
    <rect x="370" y="76" width="11" height="11" rx="2" fill="#161b22"/>
    <rect x="370" y="90" width="11" height="11" rx="2" fill="#161b22"/>
    <rect x="370" y="104" width="11" height="11" rx="2" fill="#161b22"/>
    <rect x="384" y="20" width="11" height="11" rx="2" fill="#161b22"/>
    <rect x="384" y="34" width="11" height="11" rx="2" fill="#006d32"/>
    <rect x="384" y="48" width="11" height="11" rx="2" fill="#39d353"/>
    <rect x="384" y="62" width="11" height="11" rx="2" fill="#0e4429"/>
    <rect x="384" y="76" width="11" height="11" rx="2" fill="#39d353"/>
    <rect x="384" y="90" width="11" height="11" rx="2" fill="#39d353"/>
    <rect x="384" y="104" width="11" height="11" rx="2" fill="#39d353"/>
    <rect x="398" y="20" width="11" height="11" rx="2" fill="#0e4429"/>
    <rect x="398" y="34" width="11" height="11" rx="2" fill="#161b22"/>
    <rect x="398" y="48" width="11" height="11" rx="2" fill="#161b22"/>
    <rect x="398" y="62" width="11" height="11" rx="2" fill="#161b22"/>
    <rect x="398" y="76" width="11" height="11" rx="2" fill="#161b22"/>
    <rect x="398" y="90" width="11" height="11" rx="2" fill="#006d32"/>
    <rect x="398" y="104" width="11" height="11" rx="2" fill="#26a641"/>
    <rect x="412" y="20" width="11" height="11" rx="2" fill="#26a641"/>
    <rect x="412" y="34" width="11" height="11" rx="2" fill="#0e4429"/>
    <rect x="412" y="48" width="11" height="11" rx="2" fill="#006d32"/>
    <rect x="412" y="62" width="11" height="11" rx="2" fill="#006d32"/>
    <rect x="412" y="76" width="11" height="11" rx="2" fill="#161b22"/>
    <rect x="412" y="90" width="11" height="11" rx="2" fill="#006d32"/>
    <rect x="412" y="104" width="11" height="11" rx="2" fill="#26a641"/>
    <rect x="426" y="20" width="11" height="11" rx="2" fill="#006d32"/>
    <rect x="426" y="34" width="11" height="11" rx="2" fill="#006d32"/>
    <rect x="426" y="48" width="11" height="11" rx="2" fill="#0e4429"/>
    <rect x="426" y="62" width="11" height="11" rx="2" fill="#161b22"/>
    <rect x="426" y="76" width="11" height="11" rx="2" fill="#006d32"/>
    <rect x="426" y="90" width="11" height="11" rx="2" fill="#161b22"/>
    <rect x="426" y="104" width="11" height="11" rx="2" fill="#26a641"/>
    <rect x="440" y="20" width="11" height="11" rx="2" fill="#39d353"/>
    <rect x="440" y="34" width="11" height="11" rx="2" fill="#0e4429"/>
    <rect x="440" y="48" width="11" height="11" rx="2" fill="#0e4429"/>
    <rect x="440" y="62" width="11" height="11" rx="2" fill="#39d353"/>
    <rect x="440" y="76" width="11" height="11" rx="2" fill="#006d32"/>
    <rect x="440" y="90" width="11" height="11" rx="2" fill="#161b22"/>
    <rect x="440" y="104" width="11" height="11" rx="2" fill="#161b22"/>
    <rect x="454" y="20" width="11" height="11" rx="2" fill="#161b22"/>
    <rect x="454" y="34" width="11" height="11" rx="2" fill="#26a641"/>
    <rect x="454" y="48" width="11" height="11" rx="2" fill="#26a641"/>
    <rect x="454" y="62" width="11" height="11" rx="2" fill="#161b22"/>
    <rect x="454" y="76" width="11" height="11" rx="2" fill="#26a641"/>
    <rect x="454" y="90" width="11" height="11" rx="2" fill="#39d353"/>
    <rect x="454" y="104" width="11" height="11" rx="2" fill="#006d32"/>
    <rect x="468" y="20" width="11" height="11" rx="2" fill="#0e4429"/>
    <rect x="468" y="34" width="11" height="11" rx="2" fill="#0e4429"/>
    <rect x="468" y="48" width="11" height="11" rx="2" fill="#161b22"/>
    <rect x="468" y="62" width="11" height="11" rx="2" fill="#161b22"/>
    <rect x="468" y="76" width="11" height="11" rx="2" fill="#39d353"/>
    <rect x="468" y="90" width="11" height="11" rx="2" fill="#006d32"/>
    <rect x="468" y="104" width="11" height="11" rx="2" fill="#0e4429"/>
    <rect x="482" y="20" width="11" height="11" rx="2" fill="#39d353"/>
    <rect x="482" y="34" width="11" height="11" rx="2" fill="#0e4429"/>
    <rect x="482" y="48" width="11" height="11" rx="2" fill="#26a641"/>
    <rect x="482" y="62" width="11" height="11" rx="2" fill="#26a641"/>
    <rect x="482" y="76" width="11" height="11" rx="2" fill="#161b22"/>
    <rect x="482" y="90" width="11" height="11" rx="2" fill="#161b22"/>
    <rect x="482" y="104" width="11" height="11" rx="2" fill="#161b22"/>
    <rect x="496" y="20" width="11" height="11" rx="2" fill="#161b22"/>
    <rect x="496" y="34" width="11" height="11" rx="2" fill="#0e4429"/>
    <rect x="496" y="48" width="11" height="11" rx="2" fill="#161b22"/>
    <rect x="496" y="62" width="11" height="11" rx="2" fill="#0e4429"/>
    <rect x="496" y="76" width="11" height="11" rx="2" fill="#161b22"/>
    <rect x="496" y="90" width="11" height="11" rx="2" fill="#26a641"/>
    <rect x="496" y="104" width="11" height="11" rx="2" fill="#0e4429"/>
    <rect x="510" y="20" width="11" height="11" rx="2" fill="#0e4429"/>
    <rect x="510" y="34" width="11" height="11" rx="2" fill="#0e4429"/>
    <rect x="510" y="48" width="11" height="11" rx="2" fill="#26a641"/>
    <rect x="510" y="62" width="11" height="11" rx="2" fill="#0e4429"/>
    <rect x="510" y="76" width="11" height="11" rx="2" fill="#26a641"/>
    <rect x="510" y="90" width="11" height="11" rx="2" fill="#0e4429"/>
    <rect x="510" y="104" width="11" height="11" rx="2" fill="#0e4429"/>
    <rect x="524" y="20" width="11" height="11" rx="2" fill="#0e4429"/>
    <rect x="524" y="34" width="11" height="11" rx="2" fill="#161b22"/>
    <rect x="524" y="48" width="11" height="11" rx="2" fill="#0e4429"/>
    <rect x="524" y="62" width="11" height="11" rx="2" fill="#161b22"/>
    <rect x="524" y="76" width="11" height="11" rx="2" fill="#161b22"/>
    <rect x="524" y="90" width="11" height="11" rx="2" fill="#006d32"/>
    <rect x="524" y="104" width="11" height="11" rx="2" fill="#161b22"/>
    <rect x="538" y="20" width="11" height="11" rx="2" fill="#0e4429"/>
    <rect x="538" y="34" width="11" height="11" rx="2" fill="#006d32"/>
    <rect x="538" y="48" width="11" height="11" rx="2" fill="#0e4429"/>
    <rect x="538" y="62" width="11" height="11" rx="2" fill="#161b22"/>
    <rect x="538" y="76" width="11" height="11" rx="2" fill="#0e4429"/>
    <rect x="538" y="90" width="11" height="11" rx="2" fill="#0e4429"/>
    <rect x="538" y="104" width="11" height="11" rx="2" fill="#006d32"/>
    <rect x="552" y="20" width="11" height="11" rx="2" fill="#161b22"/>
    <rect x="552" y="34" width="11" height="11" rx="2" fill="#0e4429"/>
    <rect x="552" y="48" width="11" height="11" rx="2" fill="#161b22"/>
    <rect x="552" y="62" width="11" height="11" rx="2" fill="#161b22"/>
    <rect x="552" y="76" width="11" height="11" rx="2" fill="#006d32"/>
    <rect x="552" y="90" width="11" height="11" rx="2" fill="#0e4429"/>
    <rect x="552" y="104" width="11" height="11" rx="2" fill="#0e4429"/>
    <rect x="566" y="20" width="11" height="11" rx="2" fill="#006d32"/>
    <rect x="566" y="34" width="11" height="11" rx="2" fill="#26a641"/>
    <rect x="566" y="48" width="11" height="11" rx="2" fill="#0e4429"/>
    <rect x="566" y="62" width="11" height="11" rx="2" fill="#006d32"/>
    <rect x="566" y="76" width="11" height="11" rx="2" fill="#0e4429"/>
    <rect x="566" y="90" width="11" height="11" rx="2" fill="#0e4429"/>
    <rect x="566" y="104" width="11" height="11" rx="2" fill="#006d32"/>
    <rect x="580" y="20" width="11" height="11" rx="2" fill="#0e4429"/>
    <rect x="580" y="34" width="11" height="11" rx="2" fill="#0e4429"/>
    <rect x="580" y="48" width="11" height="11" rx="2" fill="#0e4429"/>
    <rect x="580" y="62" width="11" height="11" rx="2" fill="#39d353"/>
    <rect x="580" y="76" width="11" height="11" rx="2" fill="#006d32"/>
    <rect x="580" y="90" width="11" height="11" rx="2" fill="#26a641"/>
    <rect x="580" y="104" width="11" height="11" rx="2" fill="#39d353"/>
    <rect x="594" y="20" width="11" height="11" rx="2" fill="#161b22"/>
    <rect x="594" y="34" width="11" height="11" rx="2" fill="#0e4429"/>
    <rect x="594" y="48" width="11" height="11" rx="2" fill="#39d353"/>
    <rect x="594" y="62" width="11" height="11" rx="2" fill="#26a641"/>
    <rect x="594" y="76" width="11" height="11" rx="2" fill="#161b22"/>
    <rect x="594" y="90" width="11" height="11" rx="2" fill="#161b22"/>
    <rect x="594" y="104" width="11" height="11" rx="2" fill="#0e4429"/>
    <rect x="608" y="20" width="11" height="11" rx="2" fill="#161b22"/>
    <rect x="608" y="34" width="11" height="11" rx="2" fill="#161b22"/>
    <rect x="608" y="48" width="11" height="11" rx="2" fill="#161b22"/>
    <rect x="608" y="62" width="11" height="11" rx="2" fill="#006d32"/>
    <rect x="608" y="76" width="11" height="11" rx="2" fill="#006d32"/>
    <rect x="608" y="90" width="11" height="11" rx="2" fill="#26a641"/>
    <rect x="608" y="104" width="11" height="11" rx="2" fill="#161b22"/>
    <rect x="622" y="20" width="11" height="11" rx="2" fill="#006d32"/>
    <rect x="622" y="34" width="11" height="11" rx="2" fill="#006d32"/>
    <rect x="622" y="48" width="11" height="11" rx="2" fill="#161b22"/>
    <rect x="622" y="62" width="11" height="11" rx="2" fill="#26a641"/>
    <rect x="622" y="76" width="11" height="11" rx="2" fill="#39d353"/>
    <rect x="622" y="90" width="11" height="11" rx="2" fill="#161b22"/>
    <rect x="622" y="104" width="11" height="11" rx="2" fill="#39d353"/>
    <rect x="636" y="20" width="11" height="11" rx="2" fill="#0e4429"/>
    <rect x="636" y="34" width="11" height="11" rx="2" fill="#0e4429"/>
    <rect x="636" y="48" width="11" height="11" rx="2" fill="#39d353"/>
    <rect x="636" y="62" width="11" height="11" rx="2" fill="#26a641"/>
    <rect x="636" y="76" width="11" height="11" rx="2" fill="#161b22"/>
    <rect x="636" y="90" width="11" height="11" rx="2" fill="#0e4429"/>
    <rect x="636" y="104" width="11" height="11" rx="2" fill="#0e4429"/>
    <rect x="650" y="20" width="11" height="11" rx="2" fill="#161b22"/>
    <rect x="650" y="34" width="11" height="11" rx="2" fill="#161b22"/>
    <rect x="650" y="48" width="11" height="11" rx="2" fill="#161b22"/>
    <rect x="650" y="62" width="11" height="11" rx="2" fill="#006d32"/>
    <rect x="650" y="76" width="11" height="11" rx="2" fill="#161b22"/>
    <rect x="650" y="90" width="11" height="11" rx="2" fill="#0e4429"/>
    <rect x="650" y="104" width="11" height="11" rx="2" fill="#0e4429"/>
    <rect x="664" y="20" width="11" height="11" rx="2" fill="#161b22"/>
    <rect x="664" y="34" width="11" height="11" rx="2" fill="#161b22"/>
    <rect x="664" y="48" width="11" height="11" rx="2" fill="#006d32"/>
    <rect x="664" y="62" width="11" height="11" rx="2" fill="#0e4429"/>
    <rect x="664" y="76" width="11" height="11" rx="2" fill="#161b22"/>
    <rect x="664" y="90" width="11" height="11" rx="2" fill="#39d353"/>
    <rect x="664" y="104" width="11" height="11" rx="2" fill="#006d32"/>
    <rect x="678" y="20" width="11" height="11" rx="2" fill="#39d353"/>
    <rect x="678" y="34" width="11" height="11" rx="2" fill="#161b22"/>
    <rect x="678" y="48" width="11" height="11" rx="2" fill="#161b22"/>
    <rect x="678" y="62" width="11" height="11" rx="2" fill="#161b22"/>
    <rect x="678" y="76" width="11" height="11" rx="2" fill="#006d32"/>
    <rect x="678" y="90" width="11" height="11" rx="2" fill="#161b22"/>
    <rect x="678" y="104" width="11" height="11" rx="2" fill="#161b22"/>
    <rect x="692" y="20" width="11" height="11" rx="2" fill="#0e4429"/>
    <rect x="692" y="34" width="11" height="11" rx="2" fill="#26a641"/>
    <rect x="692" y="48" width="11" height="11" rx="2" fill="#26a641"/>
    <rect x="692" y="62" width="11" height="11" rx="2" fill="#161b22"/>
    <rect x="692" y="76" width="11" height="11" rx="2" fill="#161b22"/>
    <rect x="692" y="90" width="11" height="11" rx="2" fill="#26a641"/>
    <rect x="692" y="104" width="11" height="11" rx="2" fill="#0e4429"/>
    <rect x="706" y="20" width="11" height="11" rx="2" fill="#006d32"/>
    <rect x="706" y="34" width="11" height="11" rx="2" fill="#161b22"/>
    <rect x="706" y="48" width="11" height="11" rx="2" fill="#161b22"/>
    <rect x="706" y="62" width="11" height="11" rx="2" fill="#006d32"/>
    <rect x="706" y="76" width="11" height="11" rx="2" fill="#0e4429"/>
    <rect x="706" y="90" width="11" height="11" rx="2" fill="#161b22"/>
    <rect x="706" y="104" width="11" height="11" rx="2" fill="#39d353"/>
    <rect x="720" y="20" width="11" height="11" rx="2" fill="#006d32"/>
    <rect x="720" y="34" width="11" height="11" rx="2" fill="#26a641"/>
    <rect x="720" y="48" width="11" height="11" rx="2" fill="#161b22"/>
    <rect x="720" y="62" width="11" height="11" rx="2" fill="#26a641"/>
    <rect x="720" y="76" width="11" height="11" rx="2" fill="#161b22"/>
    <rect x="720" y="90" width="11" height="11" rx="2" fill="#26a641"/>
    <rect x="720" y="104" width="11" height="11" rx="2" fill="#0e4429"/>
    <rect x="734" y="20" width="11" height="11" rx="2" fill="#161b22"/>
    <rect x="734" y="34" width="11" height="11" rx="2" fill="#0e4429"/>
    <rect x="734" y="48" width="11" height="11" rx="2" fill="#39d353"/>
    <rect x="734" y="62" width="11" height="11" rx="2" fill="#161b22"/>
    <rect x="734" y="76" width="11" height="11" rx="2" fill="#161b22"/>
    <rect x="734" y="90" width="11" height="11" rx="2" fill="#0e4429"/>
    <rect x="734" y="104" width="11" height="11" rx="2" fill="#161b22"/>
    <rect x="748" y="20" width="11" height="11" rx="2" fill="#161b22"/>
    <rect x="748" y="34" width="11" height="11" rx="2" fill="#161b22"/>
    <rect x="748" y="48" width="11" height="11" rx="2" fill="#161b22"/>
    <rect x="748" y="62" width="11" height="11" rx="2" fill="#161b22"/>
    <rect x="748" y="76" width="11" height="11" rx="2" fill="#161b22"/>
    <rect x="748" y="90" width="11" height="11" rx="2" fill="#161b22"/>
    <rect x="748" y="104" width="11" height="11" rx="2" fill="#006d32"/>
  </g>

  <!-- 4 bigger fish: 2 new colors + 2 original colors -->
  <use href="#fishShapeOrangeMid" xlink:href="#fishShapeOrangeMid" transform="scale(2.4)">
    <animateMotion dur="12s" begin="1s" repeatCount="indefinite" rotate="auto">
      <mpath href="#swimPathOrangeMid" xlink:href="#swimPathOrangeMid"/>
    </animateMotion>
  </use>
  <use href="#fishShapeTealMid" xlink:href="#fishShapeTealMid" transform="scale(2.1)">
    <animateMotion dur="14.5s" begin="6s" repeatCount="indefinite" rotate="auto">
      <mpath href="#swimPathTealMid" xlink:href="#swimPathTealMid"/>
    </animateMotion>
  </use>
  <use href="#fishShapeBlueMid" xlink:href="#fishShapeBlueMid" transform="scale(2.2)">
    <animateMotion dur="13.2s" begin="3s" repeatCount="indefinite" rotate="auto">
      <mpath href="#swimPathBlueMid" xlink:href="#swimPathBlueMid"/>
    </animateMotion>
  </use>
  <use href="#fishShapeGreenMid" xlink:href="#fishShapeGreenMid" transform="scale(1.95)">
    <animateMotion dur="15.8s" begin="9s" repeatCount="indefinite" rotate="auto">
      <mpath href="#swimPathGreenMid" xlink:href="#swimPathGreenMid"/>
    </animateMotion>
  </use>

  <!-- rising bubbles -->
  <g opacity="0">
    <circle cx="188" cy="160" r="2.3" fill="#8ecfff"/>
    <animate attributeName="opacity" values="0;0.51;0.51;0" keyTimes="0;0.1;0.85;1" dur="6.5s" begin="2.5s" repeatCount="indefinite"/>
    <animateMotion dur="6.5s" begin="2.5s" repeatCount="indefinite"
      path="M 0,0 C 5.0,-56.0 -5.0,-112.0 10,-160"/>
  </g>
  <g opacity="0">
    <circle cx="544" cy="160" r="1.9" fill="#8ecfff"/>
    <animate attributeName="opacity" values="0;0.27;0.27;0" keyTimes="0;0.1;0.85;1" dur="6.8s" begin="7.1s" repeatCount="indefinite"/>
    <animateMotion dur="6.8s" begin="7.1s" repeatCount="indefinite"
      path="M 0,0 C 5.0,-56.0 -5.0,-112.0 10,-160"/>
  </g>
  <g opacity="0">
    <circle cx="90" cy="160" r="1.8" fill="#8ecfff"/>
    <animate attributeName="opacity" values="0;0.46;0.46;0" keyTimes="0;0.1;0.85;1" dur="7.6s" begin="8.3s" repeatCount="indefinite"/>
    <animateMotion dur="7.6s" begin="8.3s" repeatCount="indefinite"
      path="M 0,0 C 5.0,-56.0 -5.0,-112.0 10,-160"/>
  </g>
  <g opacity="0">
    <circle cx="436" cy="160" r="2.7" fill="#8ecfff"/>
    <animate attributeName="opacity" values="0;0.41;0.41;0" keyTimes="0;0.1;0.85;1" dur="5.1s" begin="3.0s" repeatCount="indefinite"/>
    <animateMotion dur="5.1s" begin="3.0s" repeatCount="indefinite"
      path="M 0,0 C -5.0,-56.0 --5.0,-112.0 -10,-160"/>
  </g>
  <g opacity="0">
    <circle cx="684" cy="160" r="3.4" fill="#8ecfff"/>
    <animate attributeName="opacity" values="0;0.5;0.5;0" keyTimes="0;0.1;0.85;1" dur="6.3s" begin="1.4s" repeatCount="indefinite"/>
    <animateMotion dur="6.3s" begin="1.4s" repeatCount="indefinite"
      path="M 0,0 C -5.0,-56.0 --5.0,-112.0 -10,-160"/>
  </g>
  <g opacity="0">
    <circle cx="40" cy="160" r="2.4" fill="#8ecfff"/>
    <animate attributeName="opacity" values="0;0.41;0.41;0" keyTimes="0;0.1;0.85;1" dur="6.9s" begin="3.1s" repeatCount="indefinite"/>
    <animateMotion dur="6.9s" begin="3.1s" repeatCount="indefinite"
      path="M 0,0 C -2.5,-56.0 --2.5,-112.0 -5,-160"/>
  </g>
  <g opacity="0">
    <circle cx="701" cy="160" r="1.6" fill="#8ecfff"/>
    <animate attributeName="opacity" values="0;0.49;0.49;0" keyTimes="0;0.1;0.85;1" dur="8.0s" begin="2.1s" repeatCount="indefinite"/>
    <animateMotion dur="8.0s" begin="2.1s" repeatCount="indefinite"
      path="M 0,0 C -2.5,-56.0 --2.5,-112.0 -5,-160"/>
  </g>
  <g opacity="0">
    <circle cx="709" cy="160" r="3.4" fill="#8ecfff"/>
    <animate attributeName="opacity" values="0;0.48;0.48;0" keyTimes="0;0.1;0.85;1" dur="8.1s" begin="6.8s" repeatCount="indefinite"/>
    <animateMotion dur="8.1s" begin="6.8s" repeatCount="indefinite"
      path="M 0,0 C -5.0,-56.0 --5.0,-112.0 -10,-160"/>
  </g>
  <g opacity="0">
    <circle cx="145" cy="160" r="2.6" fill="#8ecfff"/>
    <animate attributeName="opacity" values="0;0.37;0.37;0" keyTimes="0;0.1;0.85;1" dur="7.0s" begin="3.5s" repeatCount="indefinite"/>
    <animateMotion dur="7.0s" begin="3.5s" repeatCount="indefinite"
      path="M 0,0 C -2.5,-56.0 --2.5,-112.0 -5,-160"/>
  </g>
  <g opacity="0">
    <circle cx="568" cy="160" r="2.3" fill="#8ecfff"/>
    <animate attributeName="opacity" values="0;0.38;0.38;0" keyTimes="0;0.1;0.85;1" dur="6.3s" begin="4.1s" repeatCount="indefinite"/>
    <animateMotion dur="6.3s" begin="4.1s" repeatCount="indefinite"
      path="M 0,0 C 5.0,-56.0 -5.0,-112.0 10,-160"/>
  </g>
  <g opacity="0">
    <circle cx="415" cy="160" r="2.0" fill="#8ecfff"/>
    <animate attributeName="opacity" values="0;0.47;0.47;0" keyTimes="0;0.1;0.85;1" dur="7.9s" begin="1.4s" repeatCount="indefinite"/>
    <animateMotion dur="7.9s" begin="1.4s" repeatCount="indefinite"
      path="M 0,0 C 5.0,-56.0 -5.0,-112.0 10,-160"/>
  </g>
  <g opacity="0">
    <circle cx="22" cy="160" r="2.5" fill="#8ecfff"/>
    <animate attributeName="opacity" values="0;0.33;0.33;0" keyTimes="0;0.1;0.85;1" dur="6.9s" begin="6.7s" repeatCount="indefinite"/>
    <animateMotion dur="6.9s" begin="6.7s" repeatCount="indefinite"
      path="M 0,0 C 2.5,-56.0 -2.5,-112.0 5,-160"/>
  </g>
  <g opacity="0">
    <circle cx="589" cy="160" r="3.5" fill="#8ecfff"/>
    <animate attributeName="opacity" values="0;0.45;0.45;0" keyTimes="0;0.1;0.85;1" dur="5.4s" begin="6.0s" repeatCount="indefinite"/>
    <animateMotion dur="5.4s" begin="6.0s" repeatCount="indefinite"
      path="M 0,0 C 2.5,-56.0 -2.5,-112.0 5,-160"/>
  </g>
  <g opacity="0">
    <circle cx="374" cy="160" r="3.0" fill="#8ecfff"/>
    <animate attributeName="opacity" values="0;0.32;0.32;0" keyTimes="0;0.1;0.85;1" dur="8.3s" begin="2.2s" repeatCount="indefinite"/>
    <animateMotion dur="8.3s" begin="2.2s" repeatCount="indefinite"
      path="M 0,0 C -2.5,-56.0 --2.5,-112.0 -5,-160"/>
  </g>
</svg>
