<svg width="782" height="138" viewBox="0 0 782 138" xmlns="http://www.w3.org/2000/svg" xmlns:xlink="http://www.w3.org/1999/xlink">
  <defs>
    <path id="swimPath1" d="M -40,61.0 C -11.95,39.0 16.1,39.0 45,61.0 C 73.05,83.0 101.1,83.0 130,61.0 C 158.05,39.0 186.1,39.0 215,61.0 C 243.05,83.0 271.1,83.0 300,61.0 C 328.05,39.0 356.1,39.0 385,61.0 C 413.05,83.0 441.1,83.0 470,61.0 C 498.05,39.0 526.1,39.0 555,61.0 C 583.05,83.0 611.1,83.0 640,61.0 C 668.05,39.0 696.1,39.0 725,61.0 C 753.05,83.0 781.1,83.0 810,61.0 C 838.05,39.0 866.1,39.0 895,61.0" fill="none"/>
    <path id="swimPath2" d="M -40,79.0 C -4.689999999999998,109.0 30.620000000000005,109.0 67,79.0 C 102.31,49.0 137.62,49.0 174,79.0 C 209.31,109.0 244.62,109.0 281,79.0 C 316.31,49.0 351.62,49.0 388,79.0 C 423.31,109.0 458.62,109.0 495,79.0 C 530.31,49.0 565.62,49.0 602,79.0 C 637.31,109.0 672.62,109.0 709,79.0 C 744.31,49.0 779.62,49.0 816,79.0 C 851.31,109.0 886.62,109.0 923,79.0" fill="none"/>
    <path id="swimPath3" d="M -40,45.0 C -8.0,20.0 24.0,20.0 56,45.0 C 88.0,70.0 120.0,70.0 152,45.0 C 184.0,20.0 216.0,20.0 248,45.0 C 280.0,70.0 312.0,70.0 344,45.0 C 376.0,20.0 408.0,20.0 440,45.0 C 472.0,70.0 504.0,70.0 536,45.0 C 568.0,20.0 600.0,20.0 632,45.0 C 664.0,70.0 696.0,70.0 728,45.0 C 760.0,20.0 792.0,20.0 824,45.0 C 856.0,70.0 888.0,70.0 920,45.0" fill="none"/>
    <path id="swimPath4" d="M -40,95.0 C -2.0,118.0 36.0,118.0 74,95.0 C 112.0,72.0 150.0,72.0 188,95.0 C 226.0,118.0 264.0,118.0 302,95.0 C 340.0,72.0 378.0,72.0 416,95.0 C 454.0,118.0 492.0,118.0 530,95.0 C 568.0,72.0 606.0,72.0 644,95.0 C 682.0,118.0 720.0,118.0 758,95.0 C 796.0,72.0 834.0,72.0 872,95.0 C 910.0,118.0 948.0,118.0 986,95.0" fill="none"/>

    <g id="fishShape1" transform="scale(1.5)">
      <path d="M -2,-8 Q 14,-13 24,0 Q 14,13 -2,8 Q -8,4 -9,0 Q -8,-4 -2,-8 Z" fill="#58a6ff"/>
      <path d="M -9,0 L -20,-9 Q -15,0 -20,9 Z" fill="#3d7fd6"/>
      <path d="M 4,-9 Q 8,-15 13,-11 Q 9,-7 4,-9 Z" fill="#3d7fd6" opacity="0.9"/>
      <circle cx="15" cy="-2" r="1.8" fill="#0d1117"/>
    </g>
    <g id="fishShape2" transform="scale(1.35)">
      <path d="M -2,-8 Q 14,-13 24,0 Q 14,13 -2,8 Q -8,4 -9,0 Q -8,-4 -2,-8 Z" fill="#39d353"/>
      <path d="M -9,0 L -20,-9 Q -15,0 -20,9 Z" fill="#2ea043"/>
      <path d="M 4,-9 Q 8,-15 13,-11 Q 9,-7 4,-9 Z" fill="#2ea043" opacity="0.9"/>
      <circle cx="15" cy="-2" r="1.8" fill="#0d1117"/>
    </g>
    <g id="fishShape3" transform="scale(1.2)">
      <path d="M -2,-8 Q 14,-13 24,0 Q 14,13 -2,8 Q -8,4 -9,0 Q -8,-4 -2,-8 Z" fill="#f85149"/>
      <path d="M -9,0 L -20,-9 Q -15,0 -20,9 Z" fill="#da3633"/>
      <path d="M 4,-9 Q 8,-15 13,-11 Q 9,-7 4,-9 Z" fill="#da3633" opacity="0.9"/>
      <circle cx="15" cy="-2" r="1.8" fill="#0d1117"/>
    </g>
    <g id="fishShape4" transform="scale(1.6)">
      <path d="M -2,-8 Q 14,-13 24,0 Q 14,13 -2,8 Q -8,4 -9,0 Q -8,-4 -2,-8 Z" fill="#a371f7"/>
      <path d="M -9,0 L -20,-9 Q -15,0 -20,9 Z" fill="#8957e5"/>
      <path d="M 4,-9 Q 8,-15 13,-11 Q 9,-7 4,-9 Z" fill="#8957e5" opacity="0.9"/>
      <circle cx="15" cy="-2" r="1.8" fill="#0d1117"/>
    </g>
  </defs>

  <g>
    <rect x="20" y="20" width="11" height="11" rx="2" fill="#161b22"/>
    <rect x="20" y="34" width="11" height="11" rx="2" fill="#161b22"/>
    <rect x="20" y="48" width="11" height="11" rx="2" fill="#006d32"/>
    <rect x="20" y="62" width="11" height="11" rx="2" fill="#161b22"/>
    <rect x="20" y="76" width="11" height="11" rx="2" fill="#0e4429"/>
    <rect x="20" y="90" width="11" height="11" rx="2" fill="#0e4429"/>
    <rect x="20" y="104" width="11" height="11" rx="2" fill="#161b22"/>
    <rect x="34" y="20" width="11" height="11" rx="2" fill="#0e4429"/>
    <rect x="34" y="34" width="11" height="11" rx="2" fill="#161b22"/>
    <rect x="34" y="48" width="11" height="11" rx="2" fill="#0e4429"/>
    <rect x="34" y="62" width="11" height="11" rx="2" fill="#161b22"/>
    <rect x="34" y="76" width="11" height="11" rx="2" fill="#161b22"/>
    <rect x="34" y="90" width="11" height="11" rx="2" fill="#0e4429"/>
    <rect x="34" y="104" width="11" height="11" rx="2" fill="#26a641"/>
    <rect x="48" y="20" width="11" height="11" rx="2" fill="#161b22"/>
    <rect x="48" y="34" width="11" height="11" rx="2" fill="#161b22"/>
    <rect x="48" y="48" width="11" height="11" rx="2" fill="#006d32"/>
    <rect x="48" y="62" width="11" height="11" rx="2" fill="#39d353"/>
    <rect x="48" y="76" width="11" height="11" rx="2" fill="#0e4429"/>
    <rect x="48" y="90" width="11" height="11" rx="2" fill="#0e4429"/>
    <rect x="48" y="104" width="11" height="11" rx="2" fill="#39d353"/>
    <rect x="62" y="20" width="11" height="11" rx="2" fill="#161b22"/>
    <rect x="62" y="34" width="11" height="11" rx="2" fill="#26a641"/>
    <rect x="62" y="48" width="11" height="11" rx="2" fill="#161b22"/>
    <rect x="62" y="62" width="11" height="11" rx="2" fill="#161b22"/>
    <rect x="62" y="76" width="11" height="11" rx="2" fill="#161b22"/>
    <rect x="62" y="90" width="11" height="11" rx="2" fill="#161b22"/>
    <rect x="62" y="104" width="11" height="11" rx="2" fill="#26a641"/>
    <rect x="76" y="20" width="11" height="11" rx="2" fill="#161b22"/>
    <rect x="76" y="34" width="11" height="11" rx="2" fill="#0e4429"/>
    <rect x="76" y="48" width="11" height="11" rx="2" fill="#006d32"/>
    <rect x="76" y="62" width="11" height="11" rx="2" fill="#0e4429"/>
    <rect x="76" y="76" width="11" height="11" rx="2" fill="#0e4429"/>
    <rect x="76" y="90" width="11" height="11" rx="2" fill="#161b22"/>
    <rect x="76" y="104" width="11" height="11" rx="2" fill="#161b22"/>
    <rect x="90" y="20" width="11" height="11" rx="2" fill="#161b22"/>
    <rect x="90" y="34" width="11" height="11" rx="2" fill="#006d32"/>
    <rect x="90" y="48" width="11" height="11" rx="2" fill="#0e4429"/>
    <rect x="90" y="62" width="11" height="11" rx="2" fill="#161b22"/>
    <rect x="90" y="76" width="11" height="11" rx="2" fill="#0e4429"/>
    <rect x="90" y="90" width="11" height="11" rx="2" fill="#0e4429"/>
    <rect x="90" y="104" width="11" height="11" rx="2" fill="#161b22"/>
    <rect x="104" y="20" width="11" height="11" rx="2" fill="#006d32"/>
    <rect x="104" y="34" width="11" height="11" rx="2" fill="#006d32"/>
    <rect x="104" y="48" width="11" height="11" rx="2" fill="#161b22"/>
    <rect x="104" y="62" width="11" height="11" rx="2" fill="#0e4429"/>
    <rect x="104" y="76" width="11" height="11" rx="2" fill="#0e4429"/>
    <rect x="104" y="90" width="11" height="11" rx="2" fill="#26a641"/>
    <rect x="104" y="104" width="11" height="11" rx="2" fill="#006d32"/>
    <rect x="118" y="20" width="11" height="11" rx="2" fill="#161b22"/>
    <rect x="118" y="34" width="11" height="11" rx="2" fill="#39d353"/>
    <rect x="118" y="48" width="11" height="11" rx="2" fill="#161b22"/>
    <rect x="118" y="62" width="11" height="11" rx="2" fill="#0e4429"/>
    <rect x="118" y="76" width="11" height="11" rx="2" fill="#006d32"/>
    <rect x="118" y="90" width="11" height="11" rx="2" fill="#161b22"/>
    <rect x="118" y="104" width="11" height="11" rx="2" fill="#0e4429"/>
    <rect x="132" y="20" width="11" height="11" rx="2" fill="#161b22"/>
    <rect x="132" y="34" width="11" height="11" rx="2" fill="#006d32"/>
    <rect x="132" y="48" width="11" height="11" rx="2" fill="#006d32"/>
    <rect x="132" y="62" width="11" height="11" rx="2" fill="#0e4429"/>
    <rect x="132" y="76" width="11" height="11" rx="2" fill="#26a641"/>
    <rect x="132" y="90" width="11" height="11" rx="2" fill="#161b22"/>
    <rect x="132" y="104" width="11" height="11" rx="2" fill="#006d32"/>
    <rect x="146" y="20" width="11" height="11" rx="2" fill="#0e4429"/>
    <rect x="146" y="34" width="11" height="11" rx="2" fill="#0e4429"/>
    <rect x="146" y="48" width="11" height="11" rx="2" fill="#0e4429"/>
    <rect x="146" y="62" width="11" height="11" rx="2" fill="#26a641"/>
    <rect x="146" y="76" width="11" height="11" rx="2" fill="#39d353"/>
    <rect x="146" y="90" width="11" height="11" rx="2" fill="#0e4429"/>
    <rect x="146" y="104" width="11" height="11" rx="2" fill="#006d32"/>
    <rect x="160" y="20" width="11" height="11" rx="2" fill="#161b22"/>
    <rect x="160" y="34" width="11" height="11" rx="2" fill="#006d32"/>
    <rect x="160" y="48" width="11" height="11" rx="2" fill="#006d32"/>
    <rect x="160" y="62" width="11" height="11" rx="2" fill="#39d353"/>
    <rect x="160" y="76" width="11" height="11" rx="2" fill="#26a641"/>
    <rect x="160" y="90" width="11" height="11" rx="2" fill="#161b22"/>
    <rect x="160" y="104" width="11" height="11" rx="2" fill="#0e4429"/>
    <rect x="174" y="20" width="11" height="11" rx="2" fill="#006d32"/>
    <rect x="174" y="34" width="11" height="11" rx="2" fill="#161b22"/>
    <rect x="174" y="48" width="11" height="11" rx="2" fill="#0e4429"/>
    <rect x="174" y="62" width="11" height="11" rx="2" fill="#161b22"/>
    <rect x="174" y="76" width="11" height="11" rx="2" fill="#161b22"/>
    <rect x="174" y="90" width="11" height="11" rx="2" fill="#161b22"/>
    <rect x="174" y="104" width="11" height="11" rx="2" fill="#006d32"/>
    <rect x="188" y="20" width="11" height="11" rx="2" fill="#161b22"/>
    <rect x="188" y="34" width="11" height="11" rx="2" fill="#161b22"/>
    <rect x="188" y="48" width="11" height="11" rx="2" fill="#0e4429"/>
    <rect x="188" y="62" width="11" height="11" rx="2" fill="#26a641"/>
    <rect x="188" y="76" width="11" height="11" rx="2" fill="#161b22"/>
    <rect x="188" y="90" width="11" height="11" rx="2" fill="#0e4429"/>
    <rect x="188" y="104" width="11" height="11" rx="2" fill="#0e4429"/>
    <rect x="202" y="20" width="11" height="11" rx="2" fill="#26a641"/>
    <rect x="202" y="34" width="11" height="11" rx="2" fill="#26a641"/>
    <rect x="202" y="48" width="11" height="11" rx="2" fill="#26a641"/>
    <rect x="202" y="62" width="11" height="11" rx="2" fill="#161b22"/>
    <rect x="202" y="76" width="11" height="11" rx="2" fill="#0e4429"/>
    <rect x="202" y="90" width="11" height="11" rx="2" fill="#0e4429"/>
    <rect x="202" y="104" width="11" height="11" rx="2" fill="#26a641"/>
    <rect x="216" y="20" width="11" height="11" rx="2" fill="#39d353"/>
    <rect x="216" y="34" width="11" height="11" rx="2" fill="#161b22"/>
    <rect x="216" y="48" width="11" height="11" rx="2" fill="#161b22"/>
    <rect x="216" y="62" width="11" height="11" rx="2" fill="#161b22"/>
    <rect x="216" y="76" width="11" height="11" rx="2" fill="#161b22"/>
    <rect x="216" y="90" width="11" height="11" rx="2" fill="#0e4429"/>
    <rect x="216" y="104" width="11" height="11" rx="2" fill="#0e4429"/>
    <rect x="230" y="20" width="11" height="11" rx="2" fill="#161b22"/>
    <rect x="230" y="34" width="11" height="11" rx="2" fill="#161b22"/>
    <rect x="230" y="48" width="11" height="11" rx="2" fill="#0e4429"/>
    <rect x="230" y="62" width="11" height="11" rx="2" fill="#0e4429"/>
    <rect x="230" y="76" width="11" height="11" rx="2" fill="#0e4429"/>
    <rect x="230" y="90" width="11" height="11" rx="2" fill="#39d353"/>
    <rect x="230" y="104" width="11" height="11" rx="2" fill="#006d32"/>
    <rect x="244" y="20" width="11" height="11" rx="2" fill="#0e4429"/>
    <rect x="244" y="34" width="11" height="11" rx="2" fill="#006d32"/>
    <rect x="244" y="48" width="11" height="11" rx="2" fill="#006d32"/>
    <rect x="244" y="62" width="11" height="11" rx="2" fill="#161b22"/>
    <rect x="244" y="76" width="11" height="11" rx="2" fill="#26a641"/>
    <rect x="244" y="90" width="11" height="11" rx="2" fill="#006d32"/>
    <rect x="244" y="104" width="11" height="11" rx="2" fill="#26a641"/>
    <rect x="258" y="20" width="11" height="11" rx="2" fill="#006d32"/>
    <rect x="258" y="34" width="11" height="11" rx="2" fill="#0e4429"/>
    <rect x="258" y="48" width="11" height="11" rx="2" fill="#0e4429"/>
    <rect x="258" y="62" width="11" height="11" rx="2" fill="#161b22"/>
    <rect x="258" y="76" width="11" height="11" rx="2" fill="#006d32"/>
    <rect x="258" y="90" width="11" height="11" rx="2" fill="#161b22"/>
    <rect x="258" y="104" width="11" height="11" rx="2" fill="#161b22"/>
    <rect x="272" y="20" width="11" height="11" rx="2" fill="#161b22"/>
    <rect x="272" y="34" width="11" height="11" rx="2" fill="#161b22"/>
    <rect x="272" y="48" width="11" height="11" rx="2" fill="#161b22"/>
    <rect x="272" y="62" width="11" height="11" rx="2" fill="#161b22"/>
    <rect x="272" y="76" width="11" height="11" rx="2" fill="#161b22"/>
    <rect x="272" y="90" width="11" height="11" rx="2" fill="#161b22"/>
    <rect x="272" y="104" width="11" height="11" rx="2" fill="#161b22"/>
    <rect x="286" y="20" width="11" height="11" rx="2" fill="#0e4429"/>
    <rect x="286" y="34" width="11" height="11" rx="2" fill="#161b22"/>
    <rect x="286" y="48" width="11" height="11" rx="2" fill="#26a641"/>
    <rect x="286" y="62" width="11" height="11" rx="2" fill="#006d32"/>
    <rect x="286" y="76" width="11" height="11" rx="2" fill="#161b22"/>
    <rect x="286" y="90" width="11" height="11" rx="2" fill="#161b22"/>
    <rect x="286" y="104" width="11" height="11" rx="2" fill="#161b22"/>
    <rect x="300" y="20" width="11" height="11" rx="2" fill="#0e4429"/>
    <rect x="300" y="34" width="11" height="11" rx="2" fill="#161b22"/>
    <rect x="300" y="48" width="11" height="11" rx="2" fill="#26a641"/>
    <rect x="300" y="62" width="11" height="11" rx="2" fill="#39d353"/>
    <rect x="300" y="76" width="11" height="11" rx="2" fill="#0e4429"/>
    <rect x="300" y="90" width="11" height="11" rx="2" fill="#0e4429"/>
    <rect x="300" y="104" width="11" height="11" rx="2" fill="#161b22"/>
    <rect x="314" y="20" width="11" height="11" rx="2" fill="#161b22"/>
    <rect x="314" y="34" width="11" height="11" rx="2" fill="#161b22"/>
    <rect x="314" y="48" width="11" height="11" rx="2" fill="#161b22"/>
    <rect x="314" y="62" width="11" height="11" rx="2" fill="#26a641"/>
    <rect x="314" y="76" width="11" height="11" rx="2" fill="#161b22"/>
    <rect x="314" y="90" width="11" height="11" rx="2" fill="#161b22"/>
    <rect x="314" y="104" width="11" height="11" rx="2" fill="#39d353"/>
    <rect x="328" y="20" width="11" height="11" rx="2" fill="#0e4429"/>
    <rect x="328" y="34" width="11" height="11" rx="2" fill="#161b22"/>
    <rect x="328" y="48" width="11" height="11" rx="2" fill="#0e4429"/>
    <rect x="328" y="62" width="11" height="11" rx="2" fill="#161b22"/>
    <rect x="328" y="76" width="11" height="11" rx="2" fill="#0e4429"/>
    <rect x="328" y="90" width="11" height="11" rx="2" fill="#39d353"/>
    <rect x="328" y="104" width="11" height="11" rx="2" fill="#26a641"/>
    <rect x="342" y="20" width="11" height="11" rx="2" fill="#006d32"/>
    <rect x="342" y="34" width="11" height="11" rx="2" fill="#161b22"/>
    <rect x="342" y="48" width="11" height="11" rx="2" fill="#0e4429"/>
    <rect x="342" y="62" width="11" height="11" rx="2" fill="#161b22"/>
    <rect x="342" y="76" width="11" height="11" rx="2" fill="#006d32"/>
    <rect x="342" y="90" width="11" height="11" rx="2" fill="#0e4429"/>
    <rect x="342" y="104" width="11" height="11" rx="2" fill="#006d32"/>
    <rect x="356" y="20" width="11" height="11" rx="2" fill="#161b22"/>
    <rect x="356" y="34" width="11" height="11" rx="2" fill="#161b22"/>
    <rect x="356" y="48" width="11" height="11" rx="2" fill="#26a641"/>
    <rect x="356" y="62" width="11" height="11" rx="2" fill="#39d353"/>
    <rect x="356" y="76" width="11" height="11" rx="2" fill="#26a641"/>
    <rect x="356" y="90" width="11" height="11" rx="2" fill="#26a641"/>
    <rect x="356" y="104" width="11" height="11" rx="2" fill="#26a641"/>
    <rect x="370" y="20" width="11" height="11" rx="2" fill="#006d32"/>
    <rect x="370" y="34" width="11" height="11" rx="2" fill="#161b22"/>
    <rect x="370" y="48" width="11" height="11" rx="2" fill="#0e4429"/>
    <rect x="370" y="62" width="11" height="11" rx="2" fill="#0e4429"/>
    <rect x="370" y="76" width="11" height="11" rx="2" fill="#161b22"/>
    <rect x="370" y="90" width="11" height="11" rx="2" fill="#161b22"/>
    <rect x="370" y="104" width="11" height="11" rx="2" fill="#161b22"/>
    <rect x="384" y="20" width="11" height="11" rx="2" fill="#161b22"/>
    <rect x="384" y="34" width="11" height="11" rx="2" fill="#006d32"/>
    <rect x="384" y="48" width="11" height="11" rx="2" fill="#39d353"/>
    <rect x="384" y="62" width="11" height="11" rx="2" fill="#0e4429"/>
    <rect x="384" y="76" width="11" height="11" rx="2" fill="#39d353"/>
    <rect x="384" y="90" width="11" height="11" rx="2" fill="#39d353"/>
    <rect x="384" y="104" width="11" height="11" rx="2" fill="#39d353"/>
    <rect x="398" y="20" width="11" height="11" rx="2" fill="#0e4429"/>
    <rect x="398" y="34" width="11" height="11" rx="2" fill="#161b22"/>
    <rect x="398" y="48" width="11" height="11" rx="2" fill="#161b22"/>
    <rect x="398" y="62" width="11" height="11" rx="2" fill="#161b22"/>
    <rect x="398" y="76" width="11" height="11" rx="2" fill="#161b22"/>
    <rect x="398" y="90" width="11" height="11" rx="2" fill="#006d32"/>
    <rect x="398" y="104" width="11" height="11" rx="2" fill="#26a641"/>
    <rect x="412" y="20" width="11" height="11" rx="2" fill="#26a641"/>
    <rect x="412" y="34" width="11" height="11" rx="2" fill="#0e4429"/>
    <rect x="412" y="48" width="11" height="11" rx="2" fill="#006d32"/>
    <rect x="412" y="62" width="11" height="11" rx="2" fill="#006d32"/>
    <rect x="412" y="76" width="11" height="11" rx="2" fill="#161b22"/>
    <rect x="412" y="90" width="11" height="11" rx="2" fill="#006d32"/>
    <rect x="412" y="104" width="11" height="11" rx="2" fill="#26a641"/>
    <rect x="426" y="20" width="11" height="11" rx="2" fill="#006d32"/>
    <rect x="426" y="34" width="11" height="11" rx="2" fill="#006d32"/>
    <rect x="426" y="48" width="11" height="11" rx="2" fill="#0e4429"/>
    <rect x="426" y="62" width="11" height="11" rx="2" fill="#161b22"/>
    <rect x="426" y="76" width="11" height="11" rx="2" fill="#006d32"/>
    <rect x="426" y="90" width="11" height="11" rx="2" fill="#161b22"/>
    <rect x="426" y="104" width="11" height="11" rx="2" fill="#26a641"/>
    <rect x="440" y="20" width="11" height="11" rx="2" fill="#39d353"/>
    <rect x="440" y="34" width="11" height="11" rx="2" fill="#0e4429"/>
    <rect x="440" y="48" width="11" height="11" rx="2" fill="#0e4429"/>
    <rect x="440" y="62" width="11" height="11" rx="2" fill="#39d353"/>
    <rect x="440" y="76" width="11" height="11" rx="2" fill="#006d32"/>
    <rect x="440" y="90" width="11" height="11" rx="2" fill="#161b22"/>
    <rect x="440" y="104" width="11" height="11" rx="2" fill="#161b22"/>
    <rect x="454" y="20" width="11" height="11" rx="2" fill="#161b22"/>
    <rect x="454" y="34" width="11" height="11" rx="2" fill="#26a641"/>
    <rect x="454" y="48" width="11" height="11" rx="2" fill="#26a641"/>
    <rect x="454" y="62" width="11" height="11" rx="2" fill="#161b22"/>
    <rect x="454" y="76" width="11" height="11" rx="2" fill="#26a641"/>
    <rect x="454" y="90" width="11" height="11" rx="2" fill="#39d353"/>
    <rect x="454" y="104" width="11" height="11" rx="2" fill="#006d32"/>
    <rect x="468" y="20" width="11" height="11" rx="2" fill="#0e4429"/>
    <rect x="468" y="34" width="11" height="11" rx="2" fill="#0e4429"/>
    <rect x="468" y="48" width="11" height="11" rx="2" fill="#161b22"/>
    <rect x="468" y="62" width="11" height="11" rx="2" fill="#161b22"/>
    <rect x="468" y="76" width="11" height="11" rx="2" fill="#39d353"/>
    <rect x="468" y="90" width="11" height="11" rx="2" fill="#006d32"/>
    <rect x="468" y="104" width="11" height="11" rx="2" fill="#0e4429"/>
    <rect x="482" y="20" width="11" height="11" rx="2" fill="#39d353"/>
    <rect x="482" y="34" width="11" height="11" rx="2" fill="#0e4429"/>
    <rect x="482" y="48" width="11" height="11" rx="2" fill="#26a641"/>
    <rect x="482" y="62" width="11" height="11" rx="2" fill="#26a641"/>
    <rect x="482" y="76" width="11" height="11" rx="2" fill="#161b22"/>
    <rect x="482" y="90" width="11" height="11" rx="2" fill="#161b22"/>
    <rect x="482" y="104" width="11" height="11" rx="2" fill="#161b22"/>
    <rect x="496" y="20" width="11" height="11" rx="2" fill="#161b22"/>
    <rect x="496" y="34" width="11" height="11" rx="2" fill="#0e4429"/>
    <rect x="496" y="48" width="11" height="11" rx="2" fill="#161b22"/>
    <rect x="496" y="62" width="11" height="11" rx="2" fill="#0e4429"/>
    <rect x="496" y="76" width="11" height="11" rx="2" fill="#161b22"/>
    <rect x="496" y="90" width="11" height="11" rx="2" fill="#26a641"/>
    <rect x="496" y="104" width="11" height="11" rx="2" fill="#0e4429"/>
    <rect x="510" y="20" width="11" height="11" rx="2" fill="#0e4429"/>
    <rect x="510" y="34" width="11" height="11" rx="2" fill="#0e4429"/>
    <rect x="510" y="48" width="11" height="11" rx="2" fill="#26a641"/>
    <rect x="510" y="62" width="11" height="11" rx="2" fill="#0e4429"/>
    <rect x="510" y="76" width="11" height="11" rx="2" fill="#26a641"/>
    <rect x="510" y="90" width="11" height="11" rx="2" fill="#0e4429"/>
    <rect x="510" y="104" width="11" height="11" rx="2" fill="#0e4429"/>
    <rect x="524" y="20" width="11" height="11" rx="2" fill="#0e4429"/>
    <rect x="524" y="34" width="11" height="11" rx="2" fill="#161b22"/>
    <rect x="524" y="48" width="11" height="11" rx="2" fill="#0e4429"/>
    <rect x="524" y="62" width="11" height="11" rx="2" fill="#161b22"/>
    <rect x="524" y="76" width="11" height="11" rx="2" fill="#161b22"/>
    <rect x="524" y="90" width="11" height="11" rx="2" fill="#006d32"/>
    <rect x="524" y="104" width="11" height="11" rx="2" fill="#161b22"/>
    <rect x="538" y="20" width="11" height="11" rx="2" fill="#0e4429"/>
    <rect x="538" y="34" width="11" height="11" rx="2" fill="#006d32"/>
    <rect x="538" y="48" width="11" height="11" rx="2" fill="#0e4429"/>
    <rect x="538" y="62" width="11" height="11" rx="2" fill="#161b22"/>
    <rect x="538" y="76" width="11" height="11" rx="2" fill="#0e4429"/>
    <rect x="538" y="90" width="11" height="11" rx="2" fill="#0e4429"/>
    <rect x="538" y="104" width="11" height="11" rx="2" fill="#006d32"/>
    <rect x="552" y="20" width="11" height="11" rx="2" fill="#161b22"/>
    <rect x="552" y="34" width="11" height="11" rx="2" fill="#0e4429"/>
    <rect x="552" y="48" width="11" height="11" rx="2" fill="#161b22"/>
    <rect x="552" y="62" width="11" height="11" rx="2" fill="#161b22"/>
    <rect x="552" y="76" width="11" height="11" rx="2" fill="#006d32"/>
    <rect x="552" y="90" width="11" height="11" rx="2" fill="#0e4429"/>
    <rect x="552" y="104" width="11" height="11" rx="2" fill="#0e4429"/>
    <rect x="566" y="20" width="11" height="11" rx="2" fill="#006d32"/>
    <rect x="566" y="34" width="11" height="11" rx="2" fill="#26a641"/>
    <rect x="566" y="48" width="11" height="11" rx="2" fill="#0e4429"/>
    <rect x="566" y="62" width="11" height="11" rx="2" fill="#006d32"/>
    <rect x="566" y="76" width="11" height="11" rx="2" fill="#0e4429"/>
    <rect x="566" y="90" width="11" height="11" rx="2" fill="#0e4429"/>
    <rect x="566" y="104" width="11" height="11" rx="2" fill="#006d32"/>
    <rect x="580" y="20" width="11" height="11" rx="2" fill="#0e4429"/>
    <rect x="580" y="34" width="11" height="11" rx="2" fill="#0e4429"/>
    <rect x="580" y="48" width="11" height="11" rx="2" fill="#0e4429"/>
    <rect x="580" y="62" width="11" height="11" rx="2" fill="#39d353"/>
    <rect x="580" y="76" width="11" height="11" rx="2" fill="#006d32"/>
    <rect x="580" y="90" width="11" height="11" rx="2" fill="#26a641"/>
    <rect x="580" y="104" width="11" height="11" rx="2" fill="#39d353"/>
    <rect x="594" y="20" width="11" height="11" rx="2" fill="#161b22"/>
    <rect x="594" y="34" width="11" height="11" rx="2" fill="#0e4429"/>
    <rect x="594" y="48" width="11" height="11" rx="2" fill="#39d353"/>
    <rect x="594" y="62" width="11" height="11" rx="2" fill="#26a641"/>
    <rect x="594" y="76" width="11" height="11" rx="2" fill="#161b22"/>
    <rect x="594" y="90" width="11" height="11" rx="2" fill="#161b22"/>
    <rect x="594" y="104" width="11" height="11" rx="2" fill="#0e4429"/>
    <rect x="608" y="20" width="11" height="11" rx="2" fill="#161b22"/>
    <rect x="608" y="34" width="11" height="11" rx="2" fill="#161b22"/>
    <rect x="608" y="48" width="11" height="11" rx="2" fill="#161b22"/>
    <rect x="608" y="62" width="11" height="11" rx="2" fill="#006d32"/>
    <rect x="608" y="76" width="11" height="11" rx="2" fill="#006d32"/>
    <rect x="608" y="90" width="11" height="11" rx="2" fill="#26a641"/>
    <rect x="608" y="104" width="11" height="11" rx="2" fill="#161b22"/>
    <rect x="622" y="20" width="11" height="11" rx="2" fill="#006d32"/>
    <rect x="622" y="34" width="11" height="11" rx="2" fill="#006d32"/>
    <rect x="622" y="48" width="11" height="11" rx="2" fill="#161b22"/>
    <rect x="622" y="62" width="11" height="11" rx="2" fill="#26a641"/>
    <rect x="622" y="76" width="11" height="11" rx="2" fill="#39d353"/>
    <rect x="622" y="90" width="11" height="11" rx="2" fill="#161b22"/>
    <rect x="622" y="104" width="11" height="11" rx="2" fill="#39d353"/>
    <rect x="636" y="20" width="11" height="11" rx="2" fill="#0e4429"/>
    <rect x="636" y="34" width="11" height="11" rx="2" fill="#0e4429"/>
    <rect x="636" y="48" width="11" height="11" rx="2" fill="#39d353"/>
    <rect x="636" y="62" width="11" height="11" rx="2" fill="#26a641"/>
    <rect x="636" y="76" width="11" height="11" rx="2" fill="#161b22"/>
    <rect x="636" y="90" width="11" height="11" rx="2" fill="#0e4429"/>
    <rect x="636" y="104" width="11" height="11" rx="2" fill="#0e4429"/>
    <rect x="650" y="20" width="11" height="11" rx="2" fill="#161b22"/>
    <rect x="650" y="34" width="11" height="11" rx="2" fill="#161b22"/>
    <rect x="650" y="48" width="11" height="11" rx="2" fill="#161b22"/>
    <rect x="650" y="62" width="11" height="11" rx="2" fill="#006d32"/>
    <rect x="650" y="76" width="11" height="11" rx="2" fill="#161b22"/>
    <rect x="650" y="90" width="11" height="11" rx="2" fill="#0e4429"/>
    <rect x="650" y="104" width="11" height="11" rx="2" fill="#0e4429"/>
    <rect x="664" y="20" width="11" height="11" rx="2" fill="#161b22"/>
    <rect x="664" y="34" width="11" height="11" rx="2" fill="#161b22"/>
    <rect x="664" y="48" width="11" height="11" rx="2" fill="#006d32"/>
    <rect x="664" y="62" width="11" height="11" rx="2" fill="#0e4429"/>
    <rect x="664" y="76" width="11" height="11" rx="2" fill="#161b22"/>
    <rect x="664" y="90" width="11" height="11" rx="2" fill="#39d353"/>
    <rect x="664" y="104" width="11" height="11" rx="2" fill="#006d32"/>
    <rect x="678" y="20" width="11" height="11" rx="2" fill="#39d353"/>
    <rect x="678" y="34" width="11" height="11" rx="2" fill="#161b22"/>
    <rect x="678" y="48" width="11" height="11" rx="2" fill="#161b22"/>
    <rect x="678" y="62" width="11" height="11" rx="2" fill="#161b22"/>
    <rect x="678" y="76" width="11" height="11" rx="2" fill="#006d32"/>
    <rect x="678" y="90" width="11" height="11" rx="2" fill="#161b22"/>
    <rect x="678" y="104" width="11" height="11" rx="2" fill="#161b22"/>
    <rect x="692" y="20" width="11" height="11" rx="2" fill="#0e4429"/>
    <rect x="692" y="34" width="11" height="11" rx="2" fill="#26a641"/>
    <rect x="692" y="48" width="11" height="11" rx="2" fill="#26a641"/>
    <rect x="692" y="62" width="11" height="11" rx="2" fill="#161b22"/>
    <rect x="692" y="76" width="11" height="11" rx="2" fill="#161b22"/>
    <rect x="692" y="90" width="11" height="11" rx="2" fill="#26a641"/>
    <rect x="692" y="104" width="11" height="11" rx="2" fill="#0e4429"/>
    <rect x="706" y="20" width="11" height="11" rx="2" fill="#006d32"/>
    <rect x="706" y="34" width="11" height="11" rx="2" fill="#161b22"/>
    <rect x="706" y="48" width="11" height="11" rx="2" fill="#161b22"/>
    <rect x="706" y="62" width="11" height="11" rx="2" fill="#006d32"/>
    <rect x="706" y="76" width="11" height="11" rx="2" fill="#0e4429"/>
    <rect x="706" y="90" width="11" height="11" rx="2" fill="#161b22"/>
    <rect x="706" y="104" width="11" height="11" rx="2" fill="#39d353"/>
    <rect x="720" y="20" width="11" height="11" rx="2" fill="#006d32"/>
    <rect x="720" y="34" width="11" height="11" rx="2" fill="#26a641"/>
    <rect x="720" y="48" width="11" height="11" rx="2" fill="#161b22"/>
    <rect x="720" y="62" width="11" height="11" rx="2" fill="#26a641"/>
    <rect x="720" y="76" width="11" height="11" rx="2" fill="#161b22"/>
    <rect x="720" y="90" width="11" height="11" rx="2" fill="#26a641"/>
    <rect x="720" y="104" width="11" height="11" rx="2" fill="#0e4429"/>
    <rect x="734" y="20" width="11" height="11" rx="2" fill="#161b22"/>
    <rect x="734" y="34" width="11" height="11" rx="2" fill="#0e4429"/>
    <rect x="734" y="48" width="11" height="11" rx="2" fill="#39d353"/>
    <rect x="734" y="62" width="11" height="11" rx="2" fill="#161b22"/>
    <rect x="734" y="76" width="11" height="11" rx="2" fill="#161b22"/>
    <rect x="734" y="90" width="11" height="11" rx="2" fill="#0e4429"/>
    <rect x="734" y="104" width="11" height="11" rx="2" fill="#161b22"/>
    <rect x="748" y="20" width="11" height="11" rx="2" fill="#161b22"/>
    <rect x="748" y="34" width="11" height="11" rx="2" fill="#161b22"/>
    <rect x="748" y="48" width="11" height="11" rx="2" fill="#161b22"/>
    <rect x="748" y="62" width="11" height="11" rx="2" fill="#161b22"/>
    <rect x="748" y="76" width="11" height="11" rx="2" fill="#161b22"/>
    <rect x="748" y="90" width="11" height="11" rx="2" fill="#161b22"/>
    <rect x="748" y="104" width="11" height="11" rx="2" fill="#006d32"/>
  </g>

  <use href="#fishShape1" xlink:href="#fishShape1">
    <animateMotion dur="8.5s" begin="0s" repeatCount="indefinite" rotate="auto" calcMode="spline" keySplines="0.42 0 0.58 1" keyTimes="0;1" keyPoints="0;1">
      <mpath href="#swimPath1" xlink:href="#swimPath1"/>
    </animateMotion>
  </use>

  <use href="#fishShape2" xlink:href="#fishShape2">
    <animateMotion dur="10.5s" begin="6s" repeatCount="indefinite" rotate="auto">
      <mpath href="#swimPath2" xlink:href="#swimPath2"/>
    </animateMotion>
  </use>

  <use href="#fishShape3" xlink:href="#fishShape3">
    <animateMotion dur="9.2s" begin="3s" repeatCount="indefinite" rotate="auto">
      <mpath href="#swimPath3" xlink:href="#swimPath3"/>
    </animateMotion>
  </use>

  <use href="#fishShape4" xlink:href="#fishShape4">
    <animateMotion dur="11.8s" begin="9s" repeatCount="indefinite" rotate="auto">
      <mpath href="#swimPath4" xlink:href="#swimPath4"/>
    </animateMotion>
  </use>
  <g opacity="0">
    <circle cx="183" cy="130" r="2.5" fill="#8ecfff"/>
    <animate attributeName="opacity" values="0;0.31;0.31;0" keyTimes="0;0.1;0.85;1" dur="6.7s" begin="2.3s" repeatCount="indefinite"/>
    <animateMotion dur="6.7s" begin="2.3s" repeatCount="indefinite"
      path="M 0,0 C 10,-30 -10,-60 5,-90 C -5,-105 10,-115 0,-130"/>
  </g>
  <g opacity="0">
    <circle cx="501" cy="130" r="3.5" fill="#8ecfff"/>
    <animate attributeName="opacity" values="0;0.49;0.49;0" keyTimes="0;0.1;0.85;1" dur="7.0s" begin="4.0s" repeatCount="indefinite"/>
    <animateMotion dur="7.0s" begin="4.0s" repeatCount="indefinite"
      path="M 0,0 C 5,-30 -5,-60 2,-90 C -2,-105 5,-115 0,-130"/>
  </g>
  <g opacity="0">
    <circle cx="29" cy="130" r="2.4" fill="#8ecfff"/>
    <animate attributeName="opacity" values="0;0.48;0.48;0" keyTimes="0;0.1;0.85;1" dur="7.3s" begin="0.6s" repeatCount="indefinite"/>
    <animateMotion dur="7.3s" begin="0.6s" repeatCount="indefinite"
      path="M 0,0 C 10,-30 -10,-60 5,-90 C -5,-105 10,-115 0,-130"/>
  </g>
  <g opacity="0">
    <circle cx="253" cy="130" r="3.2" fill="#8ecfff"/>
    <animate attributeName="opacity" values="0;0.51;0.51;0" keyTimes="0;0.1;0.85;1" dur="6.7s" begin="8.0s" repeatCount="indefinite"/>
    <animateMotion dur="6.7s" begin="8.0s" repeatCount="indefinite"
      path="M 0,0 C 10,-30 -10,-60 5,-90 C -5,-105 10,-115 0,-130"/>
  </g>
  <g opacity="0">
    <circle cx="645" cy="130" r="2.6" fill="#8ecfff"/>
    <animate attributeName="opacity" values="0;0.28;0.28;0" keyTimes="0;0.1;0.85;1" dur="8.8s" begin="4.3s" repeatCount="indefinite"/>
    <animateMotion dur="8.8s" begin="4.3s" repeatCount="indefinite"
      path="M 0,0 C 9,-30 -9,-60 4,-90 C -4,-105 9,-115 0,-130"/>
  </g>
  <g opacity="0">
    <circle cx="392" cy="130" r="1.6" fill="#8ecfff"/>
    <animate attributeName="opacity" values="0;0.53;0.53;0" keyTimes="0;0.1;0.85;1" dur="8.0s" begin="0.7s" repeatCount="indefinite"/>
    <animateMotion dur="8.0s" begin="0.7s" repeatCount="indefinite"
      path="M 0,0 C 10,-30 -10,-60 5,-90 C -5,-105 10,-115 0,-130"/>
  </g>
  <g opacity="0">
    <circle cx="479" cy="130" r="1.9" fill="#8ecfff"/>
    <animate attributeName="opacity" values="0;0.31;0.31;0" keyTimes="0;0.1;0.85;1" dur="7.9s" begin="3.2s" repeatCount="indefinite"/>
    <animateMotion dur="7.9s" begin="3.2s" repeatCount="indefinite"
      path="M 0,0 C 5,-30 -5,-60 2,-90 C -2,-105 5,-115 0,-130"/>
  </g>
  <g opacity="0">
    <circle cx="53" cy="130" r="2.7" fill="#8ecfff"/>
    <animate attributeName="opacity" values="0;0.31;0.31;0" keyTimes="0;0.1;0.85;1" dur="8.3s" begin="0.6s" repeatCount="indefinite"/>
    <animateMotion dur="8.3s" begin="0.6s" repeatCount="indefinite"
      path="M 0,0 C 5,-30 -5,-60 2,-90 C -2,-105 5,-115 0,-130"/>
  </g>
  <g opacity="0">
    <circle cx="688" cy="130" r="3.4" fill="#8ecfff"/>
    <animate attributeName="opacity" values="0;0.27;0.27;0" keyTimes="0;0.1;0.85;1" dur="8.1s" begin="4.6s" repeatCount="indefinite"/>
    <animateMotion dur="8.1s" begin="4.6s" repeatCount="indefinite"
      path="M 0,0 C 9,-30 -9,-60 4,-90 C -4,-105 9,-115 0,-130"/>
  </g>
  <g opacity="0">
    <circle cx="588" cy="130" r="2.7" fill="#8ecfff"/>
    <animate attributeName="opacity" values="0;0.52;0.52;0" keyTimes="0;0.1;0.85;1" dur="8.3s" begin="1.6s" repeatCount="indefinite"/>
    <animateMotion dur="8.3s" begin="1.6s" repeatCount="indefinite"
      path="M 0,0 C 5,-30 -5,-60 2,-90 C -2,-105 5,-115 0,-130"/>
  </g>
  <g opacity="0">
    <circle cx="434" cy="130" r="2.2" fill="#8ecfff"/>
    <animate attributeName="opacity" values="0;0.55;0.55;0" keyTimes="0;0.1;0.85;1" dur="8.8s" begin="4.0s" repeatCount="indefinite"/>
    <animateMotion dur="8.8s" begin="4.0s" repeatCount="indefinite"
      path="M 0,0 C 6,-30 -6,-60 3,-90 C -3,-105 6,-115 0,-130"/>
  </g>
  <g opacity="0">
    <circle cx="410" cy="130" r="2.2" fill="#8ecfff"/>
    <animate attributeName="opacity" values="0;0.55;0.55;0" keyTimes="0;0.1;0.85;1" dur="8.3s" begin="1.3s" repeatCount="indefinite"/>
    <animateMotion dur="8.3s" begin="1.3s" repeatCount="indefinite"
      path="M 0,0 C 9,-30 -9,-60 4,-90 C -4,-105 9,-115 0,-130"/>
  </g>
  <g opacity="0">
    <circle cx="522" cy="130" r="1.5" fill="#8ecfff"/>
    <animate attributeName="opacity" values="0;0.32;0.32;0" keyTimes="0;0.1;0.85;1" dur="5.3s" begin="4.8s" repeatCount="indefinite"/>
    <animateMotion dur="5.3s" begin="4.8s" repeatCount="indefinite"
      path="M 0,0 C 8,-30 -8,-60 4,-90 C -4,-105 8,-115 0,-130"/>
  </g>
  <g opacity="0">
    <circle cx="638" cy="130" r="2.3" fill="#8ecfff"/>
    <animate attributeName="opacity" values="0;0.3;0.3;0" keyTimes="0;0.1;0.85;1" dur="8.9s" begin="0.9s" repeatCount="indefinite"/>
    <animateMotion dur="8.9s" begin="0.9s" repeatCount="indefinite"
      path="M 0,0 C 9,-30 -9,-60 4,-90 C -4,-105 9,-115 0,-130"/>
  </g>
</svg>
